<svg width="24" height="25" viewBox="0 0 24 25" fill="none" xmlns="http://www.w3.org/2000/svg">
<g clip-path="url(#clip0_1410_3945)">
<path d="M23.0014 12.1055C22.7881 12.1055 22.5725 12.0375 22.392 11.8969L12.6327 4.35703C12.2741 4.08047 11.7725 4.08047 11.4139 4.35703L1.65688 11.8969C1.22094 12.2344 0.592813 12.1523 0.257656 11.7164C-0.0798435 11.2805 -0.000155982 10.6523 0.438125 10.3172L10.1952 2.77734C11.2733 1.94531 12.778 1.94531 13.8537 2.77734L23.6131 10.3172C24.0491 10.6547 24.1287 11.2805 23.7936 11.7164C23.5944 11.9719 23.2991 12.1055 23.0014 12.1055Z" fill="#042F46"/>
<path d="M18.9936 23.3318H5.05527C3.3959 23.3318 2.0459 21.9818 2.0459 20.3225V12.8529C2.0459 12.3021 2.49355 11.8545 3.04434 11.8545C3.59512 11.8545 4.04277 12.3021 4.04277 12.8529V20.3225C4.04277 20.8803 4.49746 21.335 5.05527 21.335H18.9959C19.5537 21.335 20.0084 20.8803 20.0084 20.3225V12.8529C20.0084 12.3021 20.4561 11.8545 21.0068 11.8545C21.5576 11.8545 22.0053 12.3021 22.0053 12.8529V20.3225C22.0029 21.9818 20.6529 23.3318 18.9936 23.3318Z" fill="#388DCC"/>
</g>
<defs>
<clipPath id="clip0_1410_3945">
<rect width="24" height="24" fill="white" transform="translate(0 0.333008)"/>
</clipPath>
</defs>
</svg>
