<svg width="24" height="25" viewBox="0 0 24 25" fill="none" xmlns="http://www.w3.org/2000/svg">
<path d="M12.1601 11.203C12.0601 11.193 11.9401 11.193 11.8301 11.203C9.45006 11.123 7.56006 9.17301 7.56006 6.77301C7.56006 4.32301 9.54006 2.33301 12.0001 2.33301C14.4501 2.33301 16.4401 4.32301 16.4401 6.77301C16.4301 9.17301 14.5401 11.123 12.1601 11.203Z" stroke="#388DCC" stroke-width="2" stroke-linecap="round" stroke-linejoin="round"/>
<path d="M7.15973 14.893C4.73973 16.513 4.73973 19.153 7.15973 20.763C9.90973 22.603 14.4198 22.603 17.1698 20.763C19.5898 19.143 19.5898 16.503 17.1698 14.893C14.4298 13.063 9.91973 13.063 7.15973 14.893Z" stroke="#042F46" stroke-width="2" stroke-linecap="round" stroke-linejoin="round"/>
</svg>
