<svg width="54" height="55" viewBox="0 0 54 55" fill="none" xmlns="http://www.w3.org/2000/svg">
<path fill-rule="evenodd" clip-rule="evenodd" d="M0.125 17.5C0.125 8.1802 7.6802 0.625 17 0.625H37C46.3198 0.625 53.875 8.1802 53.875 17.5V37.5C53.875 46.8198 46.3198 54.375 37 54.375H17C7.6802 54.375 0.125 46.8198 0.125 37.5V17.5ZM17 4.375C9.75128 4.375 3.875 10.2513 3.875 17.5V37.5C3.875 44.7487 9.75128 50.625 17 50.625H37C44.2487 50.625 50.125 44.7487 50.125 37.5V17.5C50.125 10.2513 44.2487 4.375 37 4.375H17Z" fill="#042F46"/>
<path fill-rule="evenodd" clip-rule="evenodd" d="M27 15.0186C28.0355 15.0186 28.875 15.858 28.875 16.8936V38.1067C28.875 39.1422 28.0355 39.9817 27 39.9817C25.9643 39.9817 25.125 39.1422 25.125 38.1067V16.8935C25.125 15.858 25.9645 15.0186 27 15.0186Z" fill="#388DCC"/>
<path fill-rule="evenodd" clip-rule="evenodd" d="M39.5 27.5C39.5 28.5355 38.6605 29.375 37.625 29.375H16.4119C15.3763 29.375 14.5369 28.5355 14.5369 27.5C14.5369 26.4643 15.3763 25.625 16.4119 25.625H37.625C38.6605 25.625 39.5 26.4645 39.5 27.5Z" fill="#388DCC"/>
</svg>
