<svg width="24" height="25" viewBox="0 0 24 25" fill="none" xmlns="http://www.w3.org/2000/svg">
<path fill-rule="evenodd" clip-rule="evenodd" d="M1.25 8.5C1.25 4.77208 4.27208 1.75 8 1.75H16C19.7279 1.75 22.75 4.77208 22.75 8.5V16.5C22.75 20.2279 19.7279 23.25 16 23.25H8C4.27208 23.25 1.25 20.2279 1.25 16.5V8.5ZM8 3.25C5.10051 3.25 2.75 5.60051 2.75 8.5V16.5C2.75 19.3995 5.10051 21.75 8 21.75H16C18.8995 21.75 21.25 19.3995 21.25 16.5V8.5C21.25 5.60051 18.8995 3.25 16 3.25H8Z" fill="#042F46"/>
<path fill-rule="evenodd" clip-rule="evenodd" d="M12 7.50732C12.4142 7.50732 12.75 7.84311 12.75 8.25732V16.7426C12.75 17.1568 12.4142 17.4926 12 17.4926C11.5857 17.4926 11.25 17.1568 11.25 16.7426V8.25731C11.25 7.8431 11.5858 7.50732 12 7.50732Z" fill="#388DCC"/>
<path fill-rule="evenodd" clip-rule="evenodd" d="M16.9999 12.5C16.9999 12.9142 16.6641 13.25 16.2499 13.25H7.76465C7.35044 13.25 7.01465 12.9142 7.01465 12.5C7.01466 12.0857 7.35044 11.75 7.76466 11.75H16.2499C16.6641 11.75 16.9999 12.0858 16.9999 12.5Z" fill="#388DCC"/>
</svg>
