<svg width="24" height="41" viewBox="0 0 24 41" fill="none" xmlns="http://www.w3.org/2000/svg">
<path d="M2.92937 0.5C1.43792 0.5 0.232422 1.70823 0.232422 3.19829V37.8017C0.232422 39.2925 1.43862 40.5 2.92937 40.5H21.0697C22.5599 40.5 23.7675 39.2925 23.7675 37.8017V3.19829C23.7675 1.70823 22.56 0.5 21.0697 0.5H2.92937ZM11.9553 38.8529C11.0162 38.8529 10.2564 38.0938 10.2564 37.1553C10.2564 36.2177 11.0162 35.4578 11.9553 35.4578C12.891 35.4578 13.6528 36.2176 13.6528 37.1553C13.6528 38.0937 12.8903 38.8529 11.9553 38.8529ZM20.1254 32.334C20.1254 32.7441 19.7931 33.077 19.3823 33.077H4.61548C4.20464 33.077 3.87312 32.7441 3.87312 32.334V5.69456C3.87312 5.28442 4.20471 4.95157 4.61548 4.95157H19.3816C19.7924 4.95157 20.1247 5.28379 20.1247 5.69456V32.3339H20.1254V32.334Z" fill="#08699B"/>
<path d="M12.0001 13.7222C8.9306 13.7222 6.43896 15.66 6.43896 18.0489C6.43896 20.1061 8.28483 21.8218 10.7549 22.2635C11.3711 23.7448 12.8551 24.7154 14.5265 24.6188C14.5285 24.6188 14.5318 24.6188 14.5359 24.6188C14.5433 24.6181 14.5473 24.6188 14.5554 24.6188C14.5512 24.6188 14.5486 24.6181 14.5459 24.6181C14.6734 24.612 14.7943 24.5396 14.8507 24.4168C14.9299 24.2442 14.858 24.0402 14.6896 23.9569C14.6386 23.9307 14.5802 23.9206 14.5211 23.9213C14.5702 23.9194 14.6191 23.926 14.6701 23.9475C13.9781 23.6529 13.4941 23.0361 13.3787 22.295C13.3734 22.2762 13.3734 22.2574 13.372 22.2386C15.779 21.7647 17.5597 20.0699 17.5597 18.0502C17.5597 15.6593 15.0702 13.7222 12.0001 13.7222ZM8.64323 18.7871C8.1801 18.7871 7.80422 18.4113 7.80422 17.9481C7.80422 17.485 8.1801 17.1091 8.64323 17.1091C9.10637 17.1091 9.48225 17.485 9.48225 17.9481C9.48225 18.4113 9.10707 18.7871 8.64323 18.7871ZM14.3762 24.5819C14.3762 24.5819 14.3762 24.5819 14.3735 24.5819C14.3715 24.5812 14.3715 24.5791 14.3695 24.5785C14.3714 24.5791 14.3735 24.5812 14.3762 24.5819ZM11.9994 18.7871C11.5362 18.7871 11.1604 18.4113 11.1604 17.9481C11.1604 17.485 11.5362 17.1091 11.9994 17.1091C12.4625 17.1091 12.8385 17.485 12.8385 17.9481C12.8384 18.4113 12.4632 18.7871 11.9994 18.7871ZM15.3555 18.7871C14.8924 18.7871 14.5165 18.4113 14.5165 17.9481C14.5165 17.485 14.8924 17.1091 15.3555 17.1091C15.8186 17.1091 16.1945 17.485 16.1945 17.9481C16.1945 18.4113 15.8193 18.7871 15.3555 18.7871Z" fill="#DC1E38"/>
</svg>
