<svg width="89" height="91" viewBox="0 0 89 91" fill="none" xmlns="http://www.w3.org/2000/svg">
<ellipse cx="44.1176" cy="45.5" rx="44.1176" ry="45" fill="#CEECFA" fill-opacity="0.5"/>
<g clip-path="url(#clip0_413_9212)">
<path d="M44.118 43.2757C52.2744 43.2757 58.9102 36.5071 58.9102 28.1876C58.9102 19.8682 52.2744 13.0996 44.118 13.0996C35.9616 13.0996 29.3258 19.8682 29.3258 28.1876C29.3258 36.5071 35.9616 43.2757 44.118 43.2757Z" fill="#042F46"/>
<path d="M24.4849 77.8999H63.7513C65.0773 77.8999 66.1523 76.8033 66.1523 75.4507V67.683C66.1523 55.2902 56.2678 45.208 44.1181 45.208C31.9683 45.208 22.0838 55.2902 22.0838 67.683V75.4507C22.0838 76.8033 23.1588 77.8999 24.4849 77.8999Z" fill="#042F46"/>
<path d="M44.1182 13.0996V43.2757C35.9618 43.2757 29.326 36.5071 29.326 28.1876C29.326 19.8679 35.9618 13.0996 44.1182 13.0996Z" fill="#388DCC"/>
<path d="M44.1182 45.208V77.9H24.485C23.1589 77.9 22.0839 76.8035 22.0839 75.4509V67.6831C22.0839 55.2902 31.9684 45.208 44.1182 45.208Z" fill="#388DCC"/>
</g>
<defs>
<clipPath id="clip0_413_9212">
<rect width="63.5294" height="64.8" fill="white" transform="matrix(-1 0 0 1 75.8828 13.0996)"/>
</clipPath>
</defs>
</svg>
