<svg width="15" height="13" viewBox="0 0 15 13" fill="none" xmlns="http://www.w3.org/2000/svg">
<mask id="path-1-inside-1_413_9142" fill="white">
<path d="M13.9127 4.76254H5.59796V3.66555C5.59796 3.50055 5.46419 3.36675 5.29916 3.36675H4.85848V2.11612C4.85848 0.980518 3.9346 0.0566406 2.79899 0.0566406C1.66339 0.0566406 0.739512 0.980518 0.739512 2.11612V3.36675H0.298799C0.13377 3.36672 0 3.50052 0 3.66552V7.78554C0 7.95054 0.13377 8.08434 0.298799 8.08434H1.72682V11.8566C1.72682 12.4561 2.21455 12.9438 2.81408 12.9438H13.9127C14.5123 12.9438 15 12.4561 15 11.8566V5.84983C15 5.2503 14.5123 4.76254 13.9127 4.76254ZM1.33708 2.11612C1.33708 1.31005 1.99286 0.654238 2.79896 0.654238C3.60507 0.654238 4.26085 1.31002 4.26085 2.11612V3.36675H1.33708V2.11612ZM0.597598 7.48677V3.96435H5.00033V7.48674H0.597598V7.48677ZM14.4024 11.8566C14.4024 12.1266 14.1828 12.3462 13.9128 12.3462H2.81408C2.54408 12.3462 2.32444 12.1266 2.32444 11.8566V11.2466H14.4024V11.8566ZM14.4024 10.649H2.32444V9.51314H14.4024V10.649ZM14.4024 8.91555H2.32444V8.08439H5.29916V8.08436C5.46419 8.08436 5.59796 7.95057 5.59796 7.78557V5.36017H13.9127C14.1827 5.36017 14.4024 5.57983 14.4024 5.84983V8.91555H14.4024Z"/>
</mask>
<path d="M13.9127 4.76254H5.59796V3.66555C5.59796 3.50055 5.46419 3.36675 5.29916 3.36675H4.85848V2.11612C4.85848 0.980518 3.9346 0.0566406 2.79899 0.0566406C1.66339 0.0566406 0.739512 0.980518 0.739512 2.11612V3.36675H0.298799C0.13377 3.36672 0 3.50052 0 3.66552V7.78554C0 7.95054 0.13377 8.08434 0.298799 8.08434H1.72682V11.8566C1.72682 12.4561 2.21455 12.9438 2.81408 12.9438H13.9127C14.5123 12.9438 15 12.4561 15 11.8566V5.84983C15 5.2503 14.5123 4.76254 13.9127 4.76254ZM1.33708 2.11612C1.33708 1.31005 1.99286 0.654238 2.79896 0.654238C3.60507 0.654238 4.26085 1.31002 4.26085 2.11612V3.36675H1.33708V2.11612ZM0.597598 7.48677V3.96435H5.00033V7.48674H0.597598V7.48677ZM14.4024 11.8566C14.4024 12.1266 14.1828 12.3462 13.9128 12.3462H2.81408C2.54408 12.3462 2.32444 12.1266 2.32444 11.8566V11.2466H14.4024V11.8566ZM14.4024 10.649H2.32444V9.51314H14.4024V10.649ZM14.4024 8.91555H2.32444V8.08439H5.29916V8.08436C5.46419 8.08436 5.59796 7.95057 5.59796 7.78557V5.36017H13.9127C14.1827 5.36017 14.4024 5.57983 14.4024 5.84983V8.91555H14.4024Z" fill="white"/>
<path d="M5.59796 4.76254H2.59796V7.76254H5.59796V4.76254ZM4.85848 3.36675H1.85848V6.36675H4.85848V3.36675ZM0.739512 3.36675V6.36675H3.73951V3.36675H0.739512ZM0.298799 3.36675L0.298266 6.36675H0.298799V3.36675ZM1.72682 8.08434H4.72682V5.08434H1.72682V8.08434ZM4.26085 3.36675V6.36675H7.26085V3.36675H4.26085ZM1.33708 3.36675H-1.66292V6.36675H1.33708V3.36675ZM0.597598 3.96435V0.964346H-2.4024V3.96435H0.597598ZM5.00033 3.96435H8.00033V0.964346H5.00033V3.96435ZM5.00033 7.48674V10.4867H8.00033V7.48674H5.00033ZM0.597598 7.48674V4.48674H-2.4024V7.48674H0.597598ZM2.32444 11.2466V8.24655H-0.675557V11.2466H2.32444ZM14.4024 11.2466H17.4024V8.24655H14.4024V11.2466ZM2.32444 10.649H-0.675557V13.649H2.32444V10.649ZM2.32444 9.51314V6.51314H-0.675557V9.51314H2.32444ZM14.4024 9.51314H17.4024V6.51314H14.4024V9.51314ZM2.32444 8.91555H-0.675557V11.9155H2.32444V8.91555ZM2.32444 8.08439V5.08439H-0.675557V8.08439H2.32444ZM5.29916 8.08439V11.0844H8.29916V8.08439H5.29916ZM5.29916 8.08436V5.08437H2.29916V8.08436H5.29916ZM5.59796 5.36017V2.36017H2.59796V5.36017H5.59796ZM14.4024 8.91555H11.4024V11.9155H14.4024V8.91555ZM13.9127 1.76254H5.59796V7.76254H13.9127V1.76254ZM8.59796 4.76254V3.66555H2.59796V4.76254H8.59796ZM8.59796 3.66555C8.59796 1.84388 7.12124 0.366748 5.29916 0.366748V6.36675C3.80714 6.36675 2.59796 5.15721 2.59796 3.66555H8.59796ZM5.29916 0.366748H4.85848V6.36675H5.29916V0.366748ZM7.85848 3.36675V2.11612H1.85848V3.36675H7.85848ZM7.85848 2.11612C7.85848 -0.676336 5.59145 -2.94336 2.79899 -2.94336V3.05664C2.27775 3.05664 1.85848 2.63737 1.85848 2.11612H7.85848ZM2.79899 -2.94336C0.00653422 -2.94336 -2.26049 -0.676336 -2.26049 2.11612H3.73951C3.73951 2.63737 3.32024 3.05664 2.79899 3.05664V-2.94336ZM-2.26049 2.11612V3.36675H3.73951V2.11612H-2.26049ZM0.739512 0.366748H0.298799V6.36675H0.739512V0.366748ZM0.299331 0.366748C-1.52326 0.366425 -3 1.84396 -3 3.66552H3C3 5.15708 1.7908 6.36701 0.298266 6.36675L0.299331 0.366748ZM-3 3.66552V7.78554H3V3.66552H-3ZM-3 7.78554C-3 9.6072 -1.52328 11.0843 0.298799 11.0843V5.08434C1.79082 5.08434 3 6.29388 3 7.78554H-3ZM0.298799 11.0843H1.72682V5.08434H0.298799V11.0843ZM-1.27318 8.08434V11.8566H4.72682V8.08434H-1.27318ZM-1.27318 11.8566C-1.27318 14.1129 0.557644 15.9438 2.81408 15.9438V9.94384C3.87146 9.94384 4.72682 10.7993 4.72682 11.8566H-1.27318ZM2.81408 15.9438H13.9127V9.94384H2.81408V15.9438ZM13.9127 15.9438C16.1691 15.9438 18 14.113 18 11.8566H12C12 10.7992 12.8554 9.94384 13.9127 9.94384V15.9438ZM18 11.8566V5.84983H12V11.8566H18ZM18 5.84983C18 3.59355 16.1692 1.76254 13.9127 1.76254V7.76254C12.8553 7.76254 12 6.90705 12 5.84983H18ZM4.33708 2.11612C4.33708 2.96686 3.64975 3.65424 2.79896 3.65424V-2.34576C0.335968 -2.34576 -1.66292 -0.346766 -1.66292 2.11612H4.33708ZM2.79896 3.65424C1.94821 3.65424 1.26085 2.96687 1.26085 2.11612H7.26085C7.26085 -0.346834 5.26192 -2.34576 2.79896 -2.34576V3.65424ZM1.26085 2.11612V3.36675H7.26085V2.11612H1.26085ZM4.26085 0.366748H1.33708V6.36675H4.26085V0.366748ZM4.33708 3.36675V2.11612H-1.66292V3.36675H4.33708ZM3.5976 7.48677V3.96435H-2.4024V7.48677H3.5976ZM0.597598 6.96435H5.00033V0.964346H0.597598V6.96435ZM2.00033 3.96435V7.48674H8.00033V3.96435H2.00033ZM5.00033 4.48674H0.597598V10.4867H5.00033V4.48674ZM-2.4024 7.48674V7.48677H3.5976V7.48674H-2.4024ZM11.4024 11.8566C11.4024 10.4698 12.5259 9.34624 13.9128 9.34624V15.3462C15.8396 15.3462 17.4024 13.7834 17.4024 11.8566H11.4024ZM13.9128 9.34624H2.81408V15.3462H13.9128V9.34624ZM2.81408 9.34624C4.20094 9.34624 5.32444 10.4698 5.32444 11.8566H-0.675557C-0.675557 13.7835 0.887224 15.3462 2.81408 15.3462V9.34624ZM5.32444 11.8566V11.2466H-0.675557V11.8566H5.32444ZM2.32444 14.2466H14.4024V8.24655H2.32444V14.2466ZM11.4024 11.2466V11.8566H17.4024V11.2466H11.4024ZM14.4024 7.64895H2.32444V13.649H14.4024V7.64895ZM5.32444 10.649V9.51314H-0.675557V10.649H5.32444ZM2.32444 12.5131H14.4024V6.51314H2.32444V12.5131ZM11.4024 9.51314V10.649H17.4024V9.51314H11.4024ZM14.4024 5.91555H2.32444V11.9155H14.4024V5.91555ZM5.32444 8.91555V8.08439H-0.675557V8.91555H5.32444ZM2.32444 11.0844H5.29916V5.08439H2.32444V11.0844ZM8.29916 8.08439V8.08436H2.29916V8.08439H8.29916ZM5.29916 11.0844C7.12124 11.0844 8.59796 9.60722 8.59796 7.78557H2.59796C2.59796 6.29391 3.80714 5.08437 5.29916 5.08437V11.0844ZM8.59796 7.78557V5.36017H2.59796V7.78557H8.59796ZM5.59796 8.36017H13.9127V2.36017H5.59796V8.36017ZM13.9127 8.36017C12.5257 8.36017 11.4024 7.23646 11.4024 5.84983H17.4024C17.4024 3.92321 15.8398 2.36017 13.9127 2.36017V8.36017ZM11.4024 5.84983V8.91555H17.4024V5.84983H11.4024ZM14.4024 11.9155H14.4024V5.91555H14.4024V11.9155Z" fill="white" mask="url(#path-1-inside-1_413_9142)"/>
</svg>
