<svg width="20" height="20" viewBox="0 0 20 20" fill="none" xmlns="http://www.w3.org/2000/svg">
<path d="M2.33301 15.8335V6.0835H17.6663V15.8335C17.6663 16.6121 17.0283 17.2502 16.2497 17.2502H3.74967C2.97108 17.2502 2.33301 16.6121 2.33301 15.8335Z" fill="white" stroke="#388DCC" stroke-width="0.5"/>
<path d="M17.9163 4.16667V6.66667H2.08301V4.16667C2.08301 3.25 2.83301 2.5 3.74967 2.5H16.2497C17.1663 2.5 17.9163 3.25 17.9163 4.16667Z" fill="#F44336"/>
<path d="M12.5 4.1665C12.5 4.49802 12.6317 4.81597 12.8661 5.05039C13.1005 5.28481 13.4185 5.4165 13.75 5.4165C14.0815 5.4165 14.3995 5.28481 14.6339 5.05039C14.8683 4.81597 15 4.49802 15 4.1665C15 3.83498 14.8683 3.51704 14.6339 3.28262C14.3995 3.0482 14.0815 2.9165 13.75 2.9165C13.4185 2.9165 13.1005 3.0482 12.8661 3.28262C12.6317 3.51704 12.5 3.83498 12.5 4.1665Z" fill="#DC1E38"/>
<path d="M5 4.1665C5 4.49802 5.1317 4.81597 5.36612 5.05039C5.60054 5.28481 5.91848 5.4165 6.25 5.4165C6.58152 5.4165 6.89946 5.28481 7.13388 5.05039C7.3683 4.81597 7.5 4.49802 7.5 4.1665C7.5 3.83498 7.3683 3.51704 7.13388 3.28262C6.89946 3.0482 6.58152 2.9165 6.25 2.9165C5.91848 2.9165 5.60054 3.0482 5.36612 3.28262C5.1317 3.51704 5 3.83498 5 4.1665Z" fill="#DC1E38"/>
<path d="M13.7503 1.25C13.292 1.25 12.917 1.625 12.917 2.08333V4.16667C12.917 4.625 13.292 5 13.7503 5C14.2087 5 14.5837 4.625 14.5837 4.16667V2.08333C14.5837 1.625 14.2087 1.25 13.7503 1.25ZM6.25033 1.25C5.79199 1.25 5.41699 1.625 5.41699 2.08333V4.16667C5.41699 4.625 5.79199 5 6.25033 5C6.70866 5 7.08366 4.625 7.08366 4.16667V2.08333C7.08366 1.625 6.70866 1.25 6.25033 1.25Z" fill="#388DCC"/>
<path d="M5.41699 8.3335H7.08366V10.0002H5.41699V8.3335ZM7.91699 8.3335H9.58366V10.0002H7.91699V8.3335ZM10.417 8.3335H12.0837V10.0002H10.417V8.3335ZM12.917 8.3335H14.5837V10.0002H12.917V8.3335ZM5.41699 10.8335H7.08366V12.5002H5.41699V10.8335ZM7.91699 10.8335H9.58366V12.5002H7.91699V10.8335ZM10.417 10.8335H12.0837V12.5002H10.417V10.8335ZM12.917 10.8335H14.5837V12.5002H12.917V10.8335ZM5.41699 13.3335H7.08366V15.0002H5.41699V13.3335ZM7.91699 13.3335H9.58366V15.0002H7.91699V13.3335ZM10.417 13.3335H12.0837V15.0002H10.417V13.3335ZM12.917 13.3335H14.5837V15.0002H12.917V13.3335Z" fill="#042F46"/>
</svg>
