<svg width="20" height="20" viewBox="0 0 20 20" fill="none" xmlns="http://www.w3.org/2000/svg">
<path d="M18.1818 2.5H1.81818C0.814025 2.5 0 3.31403 0 4.31818V15.2273C0 16.2314 0.814025 17.0454 1.81818 17.0454H18.1818C19.186 17.0454 20 16.2314 20 15.2273V4.31818C20 3.31403 19.186 2.5 18.1818 2.5Z" fill="#388DCC"/>
<g style="mix-blend-mode:soft-light">
<g style="mix-blend-mode:soft-light">
<path d="M20 5.22705H0V8.86339H20V5.22705Z" fill="#042F46"/>
</g>
</g>
<g style="mix-blend-mode:soft-light">
<g style="mix-blend-mode:soft-light">
<path d="M16.8176 12.5H14.0902C13.8392 12.5 13.6357 12.7035 13.6357 12.9546V13.8636C13.6357 14.1147 13.8392 14.3182 14.0902 14.3182H16.8176C17.0686 14.3182 17.2721 14.1147 17.2721 13.8636V12.9546C17.2721 12.7035 17.0686 12.5 16.8176 12.5Z" fill="white"/>
</g>
</g>
<g style="mix-blend-mode:soft-light">
<g style="mix-blend-mode:soft-light">
<path fill-rule="evenodd" clip-rule="evenodd" d="M5.00018 14.6116C4.91487 14.7084 4.82033 14.795 4.71658 14.8716C4.61282 14.9483 4.50217 15.0131 4.38462 15.0662C4.26705 15.1193 4.14523 15.1593 4.01914 15.1865C3.89305 15.2136 3.76552 15.2272 3.63654 15.2272C3.577 15.2272 3.51759 15.2243 3.45833 15.2184C3.39907 15.2126 3.34024 15.2039 3.28183 15.1923C3.22343 15.1806 3.16573 15.1662 3.10875 15.1489C3.05177 15.1316 2.99577 15.1116 2.94075 15.0888C2.88573 15.066 2.83197 15.0406 2.77946 15.0125C2.72694 14.9844 2.67592 14.9539 2.62642 14.9208C2.5769 14.8877 2.52913 14.8523 2.4831 14.8145C2.43707 14.7767 2.393 14.7368 2.35089 14.6946C2.30878 14.6526 2.26885 14.6085 2.23107 14.5624C2.19329 14.5164 2.15786 14.4686 2.12478 14.4191C2.0917 14.3696 2.06112 14.3186 2.03305 14.2661C2.00498 14.2136 1.97955 14.1598 1.95676 14.1048C1.93397 14.0498 1.91393 13.9938 1.89665 13.9368C1.87937 13.8798 1.86491 13.8221 1.8533 13.7637C1.84168 13.7053 1.83295 13.6465 1.82712 13.5872C1.82128 13.5279 1.81836 13.4686 1.81836 13.409C1.81836 13.3494 1.82128 13.2901 1.82712 13.2308C1.83295 13.1715 1.84168 13.1127 1.8533 13.0543C1.86491 12.9959 1.87937 12.9382 1.89665 12.8812C1.91393 12.8243 1.93397 12.7683 1.95676 12.7132C1.97955 12.6582 2.00498 12.6044 2.03305 12.5519C2.06112 12.4994 2.0917 12.4484 2.12478 12.3989C2.15786 12.3494 2.19329 12.3016 2.23107 12.2556C2.26885 12.2095 2.30878 12.1654 2.35089 12.1234C2.393 12.0813 2.43707 12.0413 2.4831 12.0035C2.52913 11.9658 2.5769 11.9303 2.62642 11.8973C2.67592 11.8641 2.72694 11.8336 2.77946 11.8055C2.83197 11.7774 2.88573 11.752 2.94075 11.7293C2.99577 11.7064 3.05177 11.6864 3.10875 11.6691C3.16573 11.6518 3.22343 11.6374 3.28183 11.6258C3.34024 11.6141 3.39907 11.6054 3.45833 11.5996C3.51759 11.5938 3.577 11.5908 3.63654 11.5908C3.76552 11.5908 3.89305 11.6044 4.01914 11.6315C4.14523 11.6587 4.26705 11.6988 4.38462 11.7518C4.50217 11.8049 4.61282 11.8698 4.71658 11.9464C4.82033 12.023 4.91487 12.1096 5.00018 12.2064C5.08548 12.1096 5.18002 12.023 5.28378 11.9464C5.38753 11.8698 5.49819 11.8049 5.61574 11.7518C5.7333 11.6988 5.85512 11.6587 5.98122 11.6315C6.1073 11.6044 6.23483 11.5908 6.36381 11.5908C6.42337 11.5908 6.48275 11.5938 6.542 11.5996C6.60131 11.6054 6.66012 11.6141 6.7185 11.6258C6.77693 11.6374 6.83462 11.6518 6.89162 11.6691C6.94856 11.6864 7.00456 11.7064 7.05962 11.7293C7.11462 11.752 7.16837 11.7774 7.22087 11.8055C7.27343 11.8336 7.32443 11.8641 7.37393 11.8973C7.42343 11.9303 7.47125 11.9658 7.51725 12.0035C7.56331 12.0413 7.60737 12.0813 7.64943 12.1234C7.69156 12.1654 7.7315 12.2095 7.76931 12.2556C7.80706 12.3016 7.8425 12.3494 7.87556 12.3989C7.90868 12.4484 7.93925 12.4994 7.96731 12.5519C7.99537 12.6044 8.02081 12.6582 8.04362 12.7132C8.06637 12.7683 8.08643 12.8243 8.10368 12.8812C8.121 12.9382 8.13543 12.9959 8.14706 13.0543C8.15868 13.1127 8.16743 13.1715 8.17325 13.2308C8.17906 13.2901 8.182 13.3494 8.182 13.409C8.182 13.4686 8.17906 13.5279 8.17325 13.5872C8.16743 13.6465 8.15868 13.7053 8.14706 13.7637C8.13543 13.8221 8.121 13.8798 8.10368 13.9368C8.08643 13.9938 8.06637 14.0498 8.04362 14.1048C8.02081 14.1598 7.99537 14.2136 7.96731 14.2661C7.93925 14.3186 7.90868 14.3696 7.87556 14.4191C7.8425 14.4686 7.80706 14.5164 7.76931 14.5624C7.7315 14.6085 7.69156 14.6526 7.64943 14.6946C7.60737 14.7368 7.56331 14.7767 7.51725 14.8145C7.47125 14.8523 7.42343 14.8877 7.37393 14.9208C7.32443 14.9539 7.27343 14.9844 7.22087 15.0125C7.16837 15.0406 7.11462 15.066 7.05962 15.0888C7.00456 15.1116 6.94856 15.1316 6.89162 15.1489C6.83462 15.1662 6.77693 15.1806 6.7185 15.1923C6.66012 15.2039 6.60131 15.2126 6.542 15.2184C6.48275 15.2243 6.42337 15.2272 6.36381 15.2272C6.23483 15.2272 6.1073 15.2136 5.98122 15.1865C5.85512 15.1593 5.7333 15.1193 5.61574 15.0662C5.49819 15.0131 5.38753 14.9483 5.28378 14.8716C5.18002 14.795 5.08548 14.7084 5.00018 14.6116Z" fill="white"/>
</g>
</g>
</svg>
