<svg width="40" height="41" viewBox="0 0 40 41" fill="none" xmlns="http://www.w3.org/2000/svg">
<g clip-path="url(#clip0_413_5809)">
<path d="M31.9998 22.4998H3.33317C1.8605 22.4998 0.666504 21.3058 0.666504 19.8332V3.83317C0.666504 2.3605 1.8605 1.1665 3.33317 1.1665H31.9998C33.4725 1.1665 34.6665 2.3605 34.6665 3.83317V19.8332C34.6665 21.3058 33.4725 22.4998 31.9998 22.4998Z" fill="#08699B"/>
<path d="M32 0.5H3.33333C1.49533 0.5 0 1.99533 0 3.83333V19.8333C0 21.6713 1.49533 23.1667 3.33333 23.1667H32C33.838 23.1667 35.3333 21.6713 35.3333 19.8333V3.83333C35.3333 1.99533 33.838 0.5 32 0.5ZM3.33333 1.83333H32C33.1027 1.83333 34 2.73067 34 3.83333V6.5H1.33333V3.83333C1.33333 2.73067 2.23067 1.83333 3.33333 1.83333ZM32 21.8333H3.33333C2.23067 21.8333 1.33333 20.936 1.33333 19.8333V11.1667H34V19.8333C34 20.936 33.1027 21.8333 32 21.8333Z" fill="#042F46"/>
<path d="M30.6665 13.1665H25.3332C24.9645 13.1665 24.6665 13.4652 24.6665 13.8332C24.6665 14.2012 24.9645 14.4998 25.3332 14.4998H30.6665C31.0352 14.4998 31.3332 14.2012 31.3332 13.8332C31.3332 13.4652 31.0352 13.1665 30.6665 13.1665Z" fill="#042F46"/>
<path d="M21.3335 13.1665H18.0002C17.6322 13.1665 17.3335 13.4652 17.3335 13.8332C17.3335 14.2012 17.6322 14.4998 18.0002 14.4998H21.3335C21.7022 14.4998 22.0002 14.2012 22.0002 13.8332C22.0002 13.4652 21.7022 13.1665 21.3335 13.1665Z" fill="#042F46"/>
<path d="M36.6668 39.8333H8.00016C6.5275 39.8333 5.3335 38.6393 5.3335 37.1667V21.1667C5.3335 19.694 6.5275 18.5 8.00016 18.5H36.6668C38.1395 18.5 39.3335 19.694 39.3335 21.1667V37.1667C39.3335 38.6393 38.1395 39.8333 36.6668 39.8333Z" fill="#5DBEF0"/>
<path d="M36.6665 40.5002H7.99984C6.16184 40.5002 4.6665 39.0048 4.6665 37.1668V21.1668C4.6665 19.3288 6.16184 17.8335 7.99984 17.8335H36.6665C38.5045 17.8335 39.9998 19.3288 39.9998 21.1668V37.1668C39.9998 39.0048 38.5045 40.5002 36.6665 40.5002ZM7.99984 19.1668C6.89717 19.1668 5.99984 20.0642 5.99984 21.1668V37.1668C5.99984 38.2695 6.89717 39.1668 7.99984 39.1668H36.6665C37.7692 39.1668 38.6665 38.2695 38.6665 37.1668V21.1668C38.6665 20.0642 37.7692 19.1668 36.6665 19.1668H7.99984Z" fill="#042F46"/>
<path d="M14.6665 31.1667C14.6665 31.9033 14.0698 32.5 13.3332 32.5H9.99984C9.26317 32.5 8.6665 31.9033 8.6665 31.1667V27.8333C8.6665 27.0967 9.26317 26.5 9.99984 26.5H13.3332C14.0698 26.5 14.6665 27.0967 14.6665 27.8333V31.1667Z" fill="#F8F8FA"/>
<path d="M13.3333 25.8335H10C8.89733 25.8335 8 26.7308 8 27.8335V31.1668C8 32.2695 8.89733 33.1668 10 33.1668H13.3333C14.436 33.1668 15.3333 32.2695 15.3333 31.1668V27.8335C15.3333 26.7308 14.436 25.8335 13.3333 25.8335ZM14 27.8335V28.5002H12V27.1668H13.3333C13.7007 27.1668 14 27.4662 14 27.8335ZM10 27.1668H10.6667V29.1668H9.33333V27.8335C9.33333 27.4662 9.63267 27.1668 10 27.1668ZM9.33333 31.1668V30.5002H10.6667V31.8335H10C9.63267 31.8335 9.33333 31.5342 9.33333 31.1668ZM13.3333 31.8335H12V29.8335H14V31.1668C14 31.5342 13.7007 31.8335 13.3333 31.8335Z" fill="#042F46"/>
<path d="M14 21.8333H8.66667C8.29867 21.8333 8 21.5347 8 21.1667C8 20.7987 8.29867 20.5 8.66667 20.5H14C14.368 20.5 14.6667 20.7987 14.6667 21.1667C14.6667 21.5347 14.368 21.8333 14 21.8333Z" fill="#042F46"/>
<path d="M18 21.8333H16.6667C16.2987 21.8333 16 21.5347 16 21.1667C16 20.7987 16.2987 20.5 16.6667 20.5H18C18.368 20.5 18.6667 20.7987 18.6667 21.1667C18.6667 21.5347 18.368 21.8333 18 21.8333Z" fill="#042F46"/>
<path d="M31.3335 37.8333H26.0002C25.6315 37.8333 25.3335 37.5347 25.3335 37.1667C25.3335 36.7987 25.6315 36.5 26.0002 36.5H31.3335C31.7022 36.5 32.0002 36.7987 32.0002 37.1667C32.0002 37.5347 31.7022 37.8333 31.3335 37.8333Z" fill="#042F46"/>
<path d="M35.3335 37.8333H34.0002C33.6315 37.8333 33.3335 37.5347 33.3335 37.1667C33.3335 36.7987 33.6315 36.5 34.0002 36.5H35.3335C35.7022 36.5 36.0002 36.7987 36.0002 37.1667C36.0002 37.5347 35.7022 37.8333 35.3335 37.8333Z" fill="#042F46"/>
<path d="M27.1987 31.332C28.7969 32.8897 31.3855 32.8897 32.9637 31.332L30.0912 28.5L27.1987 31.332Z" fill="#2F8ED6"/>
<path d="M27.1986 25.6685C25.6005 27.2261 25.6005 29.7748 27.1986 31.3319L30.0911 28.4999L27.1986 25.6685Z" fill="#042E46"/>
<path d="M32.9632 25.6683C31.3855 24.1106 28.7964 24.1106 27.1982 25.6683L30.0907 28.5003L32.9632 25.6683Z" fill="#DD0A35"/>
</g>
<defs>
<clipPath id="clip0_413_5809">
<rect width="40" height="40" fill="white" transform="translate(0 0.5)"/>
</clipPath>
</defs>
</svg>
