<svg width="208" height="48" viewBox="0 0 208 48" fill="none" xmlns="http://www.w3.org/2000/svg">
<path d="M27.3667 47.7739L25.7422 43.9273C25.7422 43.9273 29.6133 42.2428 30.4022 41.145C30.7089 40.7517 30.8467 40.3228 31.0044 39.8873C31.4267 38.7273 31.8978 37.4295 31.8978 37.4295L24.5444 18.4473L29.2467 16.9073L34.5489 31.4428L39.5089 17.6761H44.5533L35.1267 42.0717C35.1267 42.0717 34.3089 44.0184 32.3667 45.4517C31.4333 46.1406 30.8422 46.5561 29.7133 47.0472C28.4178 47.6139 27.3667 47.7739 27.3667 47.7739ZM153.218 47.7739L151.593 43.9273C151.593 43.9273 155.464 42.2428 156.253 41.145C156.56 40.7517 156.698 40.3228 156.856 39.8873C157.278 38.7273 157.749 37.4295 157.749 37.4295L150.396 18.4473L155.098 16.9073L160.4 31.4428L165.36 17.6761H170.404L160.978 42.0717C160.978 42.0717 160.16 44.0184 158.218 45.4517C157.284 46.1406 156.693 46.5561 155.564 47.0472C154.267 47.6139 153.218 47.7739 153.218 47.7739ZM50.0756 38.3695H47.5111V8.61392L52.3 8.10059V18.105C53.0689 17.7028 54.1 17.3539 55.1089 17.1895C56.2756 16.9984 57.6111 17.0495 58.9822 17.3228C60.0333 17.5317 62.9556 18.3184 64.8133 21.0584C66.24 23.1606 66.8333 25.4184 66.8333 28.0561C66.8333 30.8806 66.2133 33.2139 64.5778 35.265C62.4 37.9984 59.3689 38.965 56.5689 38.965C54.1111 38.965 51.9556 37.7584 51.1 37.085L50.0756 38.3695ZM60.9756 31.9517C61.2844 31.4761 61.7889 29.8473 61.7889 28.0961C61.7889 26.3473 61.4711 25.1184 60.9222 24.1028C60.3733 23.0917 59.5489 21.9673 58.0822 21.5317C56.7133 21.125 55.1311 21.2006 54.18 21.6095C52.92 22.1517 52.3 22.6361 52.3 22.6361V33.5806C52.3 33.5806 54.2156 34.8339 56.3178 34.7784C59.4333 34.6961 60.2978 33.0006 60.9756 31.9517ZM89.1133 29.2206H74.7489C74.8667 30.3806 75.2422 31.5517 75.7933 32.3406C76.68 33.6095 78.2244 34.7695 81.2978 34.7806C83.3333 34.7873 84.5311 34.4606 87.5756 32.9828L89.0289 36.4873C86.8733 37.9784 85.1556 38.3673 84.44 38.545C82.5267 39.0184 80.0645 38.9428 78.3556 38.645C75.9645 38.3406 73.9644 37.1761 72.5889 35.7873C70.5956 33.8628 69.7911 31.285 69.7911 28.0539C69.7911 24.985 70.5511 22.4761 72.0778 20.5228C73.7733 18.3561 76.4511 17.0761 79.6667 17.0761C83.3067 17.0761 85.5556 18.2717 87 20.3406C88.4511 22.4184 89.1133 24.6873 89.1133 27.8917C89.1133 28.1073 89.1267 28.3495 89.1133 28.6184M74.8356 26.0561H84.4978C84.3178 24.9828 84.0378 23.9117 83.4645 23.085C82.5756 21.8073 81.3911 21.1828 79.7733 21.1828C78.4911 21.1828 76.8711 21.525 75.8444 23.1739C75.2778 24.0828 75.0089 25.025 74.8356 26.0561ZM103.191 17.6784L104.218 21.525C103.198 21.5473 102.553 21.7806 102.051 21.9406C100.567 22.4117 98.6556 23.6561 97.6422 24.4473C97.4533 24.5961 97.2467 24.7761 96.8644 25.1161V38.3695H92.0756V17.6784H94.64L96.18 21.0984C97.4644 20.0317 99.3133 18.9073 99.6844 18.705C100.711 18.145 101.971 17.6784 103.191 17.6784ZM117.876 27.5873H112.747V38.3672H107.173V8.63837H117.873C120.673 8.63837 122.94 9.47392 124.678 11.1428C126.413 12.8117 127.282 15.5028 127.282 18.1139C127.282 20.725 126.413 23.4161 124.678 25.085C122.942 26.7539 120.673 27.5873 117.876 27.5873ZM112.787 22.7828H117.189C118.562 22.7828 119.651 22.4139 120.46 21.6717C121.267 20.9317 121.671 19.3917 121.671 18.1539C121.671 16.8895 121.273 15.3361 120.48 14.5939C119.687 13.8539 118.589 13.4828 117.189 13.4828H112.787V22.7828ZM130.24 32.2139C130.24 30.5184 130.802 28.5406 132.378 27.3406C134.34 25.7806 136.356 25.6828 137.518 25.6361L142.467 25.6295C142.467 25.6295 142.467 25.1784 142.362 24.4761C142.187 23.5917 142.042 23.2095 141.673 22.645C141.022 21.6628 139.924 21.405 138.893 21.3561C137.762 21.3561 136.733 21.5917 135.989 21.7584C134.867 22.0717 134.187 22.2473 132.891 22.8917L131.522 18.9584C132.664 18.1739 134.438 17.7984 134.942 17.6761C135.22 17.6095 137.08 17.1628 138.704 17.1628C141.664 17.1628 143.993 18.3028 145.393 19.7161C146.793 21.1295 147.516 22.8139 147.431 25.1473L147.418 34.9184C147.418 36.1028 147.424 38.3672 147.424 38.3672H144.176L143.407 36.2295C143.407 36.2295 140.858 38.9139 137.593 38.7939C134.802 38.7984 133.162 38.0184 131.987 36.8561C130.733 35.6739 130.24 33.8272 130.24 32.2139ZM137.524 35.1206C138.993 35.1984 140.547 34.4273 141.787 33.4406C142.607 32.7273 142.638 32.6406 142.638 32.6406V28.965H137.762C135.233 29.1784 134.531 31.1184 134.607 32.5428C134.644 33.2561 135.102 34.0117 135.56 34.4561C136.018 34.8984 136.718 35.1206 137.524 35.1206ZM19.6356 31.7161C18.2511 32.905 15.6489 33.6073 13.7933 33.6073C9.18667 33.6073 4.78668 29.2739 4.78668 23.9295C4.78668 18.585 9.18667 14.2517 13.7933 14.2517C15.6489 14.2517 18.2489 14.9539 19.6356 16.1428L22.48 11.6717C20.3 9.80059 16.7156 8.69392 13.7956 8.69392C6.54445 8.69392 0 15.5139 0 23.9295C0 32.3428 6.54445 39.165 13.7956 39.165C16.7156 39.165 20.3 38.0584 22.48 36.1873L19.6356 31.7161Z" fill="#042E46"/>
<path d="M183.058 28.8783C189.814 35.4628 200.756 35.4628 207.427 28.8783L195.285 16.9072L183.058 28.8783Z" fill="#2F8ED6"/>
<path d="M183.058 4.93835C176.302 11.5228 176.302 22.2961 183.058 28.8784L195.285 16.9072L183.058 4.93835Z" fill="#042E46"/>
<path d="M207.425 4.93833C200.756 -1.64611 189.811 -1.64611 183.056 4.93833L195.282 16.9094L207.425 4.93833Z" fill="#DD0A35"/>
</svg>
