<svg width="18" height="20" viewBox="0 0 18 20" fill="none" xmlns="http://www.w3.org/2000/svg">
<path d="M16.7516 15.607C16.4385 15.607 16.1847 15.8608 16.1847 16.1738C16.1847 17.6584 14.9768 18.8663 13.4922 18.8663C12.4932 18.8663 11.6202 18.3191 11.1555 17.5089C11.1437 17.4883 11.1316 17.4677 11.1204 17.4468C11.107 17.422 11.0943 17.3968 11.0818 17.3715C11.0695 17.3469 11.0576 17.322 11.0462 17.297C11.0359 17.2748 11.0255 17.2525 11.0158 17.2299C10.9963 17.1844 10.978 17.1384 10.9611 17.092C10.9555 17.0764 10.9505 17.0604 10.9451 17.0447C10.9322 17.007 10.92 16.9692 10.9089 16.9311C10.9041 16.9146 10.8993 16.898 10.8948 16.8814C10.882 16.8342 10.8702 16.7868 10.8599 16.7388C10.8588 16.7333 10.8573 16.7279 10.8561 16.7223C10.8448 16.6678 10.8355 16.6129 10.8276 16.5577C10.8257 16.5442 10.8241 16.5305 10.8224 16.5169C10.8169 16.4739 10.8125 16.4307 10.8091 16.3875C10.8079 16.3721 10.8065 16.3568 10.8055 16.3415C10.8021 16.2857 10.7998 16.2298 10.7998 16.1737C10.7998 14.6891 12.0077 13.4812 13.4923 13.4812C13.8053 13.4812 14.0591 13.2274 14.0591 12.9144V7.4727H14.8527C15.1658 7.4727 15.4196 7.21887 15.4196 6.90586V4.98348C15.4196 3.69941 14.3749 2.65469 13.0908 2.65469C12.7778 2.65469 12.524 2.90852 12.524 3.22152C12.524 3.53453 12.7778 3.78836 13.0908 3.78836C13.7498 3.78836 14.2859 4.32449 14.2859 4.98348V6.33914H13.4923H2.60898H1.81535V4.98348C1.81535 4.32445 2.35148 3.78836 3.01043 3.78836H8.90086C9.21391 3.78836 9.4677 3.53453 9.4677 3.22152C9.4677 2.90852 9.21391 2.65469 8.90086 2.65469H5.55652V1.13367H10.5447V3.22152C10.5447 3.53453 10.7985 3.78836 11.1115 3.78836C11.4246 3.78836 11.6784 3.53453 11.6784 3.22152V0.566836C11.6784 0.253828 11.4246 0 11.1115 0H4.98961C4.67656 0 4.42277 0.253828 4.42277 0.566836V2.65469H3.01039C1.72633 2.65469 0.681641 3.69941 0.681641 4.98348V6.90598C0.681641 7.21898 0.93543 7.47281 1.24848 7.47281H2.04211V17.8743C2.04211 18.1873 2.2959 18.4411 2.60895 18.4411H10.4125C11.1099 19.3858 12.2305 20 13.4922 20C15.602 20 17.3184 18.2836 17.3184 16.1738C17.3184 15.8608 17.0646 15.607 16.7516 15.607ZM10.0471 14.5101C10.0393 14.5262 10.0323 14.5427 10.0246 14.5588C10.0071 14.5964 9.98973 14.6339 9.9734 14.672C9.96457 14.6928 9.95633 14.7138 9.94785 14.7346C9.93391 14.7689 9.92004 14.8032 9.90703 14.838C9.89848 14.8609 9.89055 14.884 9.88242 14.9071C9.87063 14.9405 9.85914 14.974 9.84824 15.0079C9.84047 15.032 9.8332 15.0562 9.8259 15.0806C9.81594 15.1141 9.80629 15.1477 9.79715 15.1816C9.79047 15.2064 9.78398 15.2314 9.77781 15.2565C9.76941 15.2905 9.7616 15.3247 9.7541 15.359C9.74859 15.3843 9.74317 15.4095 9.73816 15.435C9.73129 15.47 9.7252 15.5052 9.71922 15.5406C9.71504 15.5657 9.71066 15.5908 9.70699 15.6161C9.70156 15.653 9.69715 15.6903 9.69277 15.7276C9.69 15.7516 9.68676 15.7755 9.68445 15.7996C9.68043 15.841 9.67766 15.8827 9.67492 15.9244C9.67363 15.9448 9.67168 15.9651 9.67066 15.9856C9.66762 16.048 9.6659 16.1107 9.6659 16.1738C9.6659 16.2324 9.66766 16.2908 9.67031 16.3491C9.67117 16.3675 9.67231 16.3857 9.67344 16.4039C9.67594 16.4452 9.67906 16.4863 9.68285 16.5274C9.68461 16.5465 9.68621 16.5656 9.68824 16.5846C9.69414 16.6396 9.70094 16.6945 9.70922 16.7491C9.71133 16.7629 9.71402 16.7766 9.71625 16.7903C9.72316 16.8328 9.7307 16.8753 9.73902 16.9175C9.7432 16.9388 9.74781 16.96 9.75235 16.9811C9.76027 17.0179 9.76879 17.0546 9.77781 17.0912C9.78246 17.11 9.78699 17.129 9.79191 17.1478C9.80598 17.2013 9.8209 17.2546 9.83727 17.3074H3.17582V7.47285H12.9254V12.3896C12.9228 12.39 12.9203 12.3905 12.9178 12.3909C12.8979 12.3939 12.8783 12.3978 12.8584 12.4011C12.8179 12.4079 12.7774 12.4148 12.7373 12.4229C12.7139 12.4275 12.6908 12.433 12.6676 12.4382C12.6314 12.4462 12.5953 12.4542 12.5595 12.4632C12.5353 12.4693 12.5114 12.476 12.4873 12.4826C12.453 12.4919 12.4187 12.5014 12.3847 12.5118C12.3605 12.5191 12.3364 12.5269 12.3124 12.5347C12.2791 12.5455 12.2459 12.5567 12.2131 12.5684C12.1893 12.5769 12.1656 12.5856 12.142 12.5945C12.1092 12.607 12.0768 12.6198 12.0445 12.6331C12.0215 12.6425 11.9986 12.652 11.9759 12.6618C11.9432 12.676 11.9109 12.6908 11.8788 12.7058C11.8571 12.716 11.8353 12.7259 11.8139 12.7364C11.7805 12.7528 11.7477 12.77 11.7149 12.7872C11.6954 12.7975 11.6757 12.8075 11.6564 12.818C11.6202 12.8379 11.5845 12.8588 11.5491 12.8798C11.5338 12.8889 11.5183 12.8975 11.5032 12.9066C11.4522 12.9378 11.4019 12.9702 11.3525 13.0037V10.6945C11.3525 10.3815 11.0987 10.1277 10.7857 10.1277C10.4726 10.1277 10.2188 10.3815 10.2188 10.6945V14.1951C10.2183 14.1961 10.2176 14.197 10.217 14.198C10.1557 14.2989 10.0989 14.4032 10.0471 14.5101Z" fill="#042F46"/>
</svg>
