<svg width="13" height="17" viewBox="0 0 13 17" fill="none" xmlns="http://www.w3.org/2000/svg">
<path d="M12.0072 5.47386C12.0044 5.45488 12.0012 5.43806 11.9969 5.42233L11.9974 5.42505C11.9806 5.35237 11.9464 5.29 11.8987 5.23956L7.5597 0.900572C7.5098 0.853386 7.44743 0.819216 7.378 0.802403L7.37529 0.80186C7.36065 0.797521 7.34329 0.794267 7.3254 0.791555H7.32377C7.30967 0.787759 7.29177 0.783962 7.27387 0.78125H7.2717H0.763225C0.538683 0.78125 0.356445 0.963487 0.356445 1.18803V16.3745C0.356445 16.599 0.538683 16.7812 0.763225 16.7812H11.6107C11.8352 16.7812 12.0175 16.599 12.0175 16.3745V5.52701C12.0148 5.5064 12.011 5.4885 12.0066 5.47115L12.0072 5.47386ZM10.6284 5.12023H7.67848V2.17027L10.6284 5.12023ZM1.17 15.9677V1.59481H6.86492V5.52701C6.86492 5.75155 7.04716 5.93379 7.2717 5.93379H11.2039V15.9677H1.17ZM8.61082 11.4443L6.59373 13.4625V7.6721C6.59373 7.44756 6.4115 7.26532 6.18695 7.26532C5.96241 7.26532 5.78017 7.44756 5.78017 7.6721V13.4619L3.76255 11.4443C3.68878 11.3716 3.5879 11.3261 3.47617 11.3261C3.25109 11.3261 3.06885 11.5083 3.06885 11.7334C3.06885 11.8457 3.11387 11.9471 3.18763 12.0203L5.8995 14.7322C5.9136 14.7463 5.93475 14.7414 5.94994 14.7528C5.97814 14.7745 5.99767 14.8059 6.03129 14.82C6.07739 14.839 6.13109 14.8504 6.18695 14.8509C6.29922 14.8509 6.40065 14.8054 6.47441 14.7322L9.18682 12.0203C9.26058 11.9465 9.30614 11.8446 9.30614 11.7323C9.30614 11.5072 9.1239 11.325 8.89882 11.325C8.78655 11.325 8.68458 11.3705 8.61082 11.4443Z" fill="white"/>
</svg>
