<svg width="46" height="41" viewBox="0 0 46 41" fill="none" xmlns="http://www.w3.org/2000/svg">
<path d="M44.8612 33.5948L40.9237 20.7698L40.8393 16.1948C40.8393 14.2261 38.5706 11.6105 36.2362 11.3855C33.6875 11.1455 31.1356 11.8092 29.0268 13.2605C27.9482 13.9429 26.7029 14.3158 25.4268 14.3386H20.5424C19.2659 14.3187 18.0198 13.9455 16.9424 13.2605C14.8336 11.8092 12.2817 11.1455 9.73305 11.3855C7.3893 11.6105 5.12992 14.198 5.12992 16.1948L5.03617 20.7698L1.11742 33.5948C0.917972 34.0753 0.817134 34.5909 0.820903 35.1111C0.824671 35.6313 0.93297 36.1454 1.13936 36.6229C1.34575 37.1004 1.64603 37.5315 2.02234 37.8907C2.39865 38.2498 2.84332 38.5297 3.32992 38.7136C5.87992 39.8292 8.5893 38.498 10.1643 36.923L12.5174 34.7386C14.3268 33.4167 16.5112 33.8011 18.7518 33.8011H27.1893C29.4393 33.8011 31.6237 33.3792 33.433 34.7386L35.7768 36.923C37.3518 38.498 39.7237 40.2323 42.6205 38.7136C44.608 37.6823 45.7799 35.6105 44.8612 33.5948Z" stroke="#08699B" stroke-width="1.5"/>
<path d="M37.811 23.3197V23.1041C37.811 22.1669 37.0513 21.4072 36.1142 21.4072H35.8985C34.9614 21.4072 34.2017 22.1669 34.2017 23.1041V23.3197C34.2017 24.2569 34.9614 25.0166 35.8985 25.0166H36.1142C37.0513 25.0166 37.811 24.2569 37.811 23.3197Z" fill="#DC1E38" stroke="#08699B"/>
<path d="M28.7734 23.3197V23.1041C28.7734 22.1669 28.0137 21.4072 27.0766 21.4072H26.8609C25.9238 21.4072 25.1641 22.1669 25.1641 23.1041V23.3197C25.1641 24.2569 25.9238 25.0166 26.8609 25.0166H27.0766C28.0137 25.0166 28.7734 24.2569 28.7734 23.3197Z" fill="#DC1E38" stroke="#08699B"/>
<path d="M31.38 29.5352H31.5956C32.5328 29.5352 33.2925 28.7754 33.2925 27.8383V27.6227C33.2925 26.6855 32.5328 25.9258 31.5956 25.9258H31.38C30.4428 25.9258 29.6831 26.6855 29.6831 27.6227V27.8383C29.6831 28.7754 30.4428 29.5352 31.38 29.5352Z" fill="#DC1E38" stroke="#08699B"/>
<path d="M31.38 20.4883H31.5956C32.5328 20.4883 33.2925 19.7286 33.2925 18.7914V18.5758C33.2925 17.6386 32.5328 16.8789 31.5956 16.8789H31.38C30.4428 16.8789 29.6831 17.6386 29.6831 18.5758V18.7914C29.6831 19.7286 30.4428 20.4883 31.38 20.4883Z" fill="#DC1E38" stroke="#08699B"/>
<path d="M13.3049 26.9291C15.3604 26.9291 17.0268 25.2628 17.0268 23.2072C17.0268 21.1517 15.3604 19.4854 13.3049 19.4854C11.2493 19.4854 9.58301 21.1517 9.58301 23.2072C9.58301 25.2628 11.2493 26.9291 13.3049 26.9291Z" fill="#388DCC" stroke="#08699B"/>
<path d="M22.9896 14.3194C22.9896 14.3194 22.7834 3.70693 32.1959 1.70068" stroke="#08699B" stroke-width="1.5"/>
</svg>
