<svg width="25" height="16" viewBox="0 0 25 16" fill="none" xmlns="http://www.w3.org/2000/svg">
<ellipse cx="12.5" cy="7.57895" rx="12" ry="7.57895" fill="#9B9494"/>
<g clip-path="url(#clip0_418_4442)">
<path d="M18.9752 7.40647C18.9589 7.36305 18.4975 6.34265 17.4772 5.31683C16.1148 3.95992 14.3943 3.23805 12.5 3.23805C12.1 3.23732 11.7005 3.27 11.3059 3.33575C11.2297 3.35003 11.1586 3.38424 11.0998 3.4349C11.0411 3.48555 10.9968 3.55085 10.9714 3.62416C10.9461 3.69747 10.9406 3.77619 10.9555 3.85232C10.9704 3.92845 11.0051 3.99928 11.0563 4.05762L16.5545 10.104C16.5951 10.1485 16.6446 10.184 16.6997 10.2083C16.7549 10.2325 16.8144 10.2451 16.8747 10.2451C16.982 10.2437 17.0855 10.2054 17.1678 10.1366C18.4053 9.0239 18.9535 7.80812 18.9752 7.75927C18.9992 7.70357 19.0116 7.64354 19.0116 7.58287C19.0116 7.5222 18.9992 7.46217 18.9752 7.40647Z" fill="white"/>
<path d="M8.47802 2.50918C8.39957 2.42711 8.2921 2.37903 8.17863 2.37524C8.06517 2.37145 7.95473 2.41225 7.87098 2.48891C7.78723 2.56556 7.73683 2.67196 7.73058 2.78532C7.72434 2.89868 7.76274 3.00998 7.83756 3.09537L8.87967 4.2406C6.90943 5.45096 6.06272 7.31807 6.02473 7.40491C6.00069 7.46061 5.98828 7.52064 5.98828 7.58131C5.98828 7.64197 6.00069 7.702 6.02473 7.7577C6.04101 7.7957 6.50236 8.81609 7.52276 9.84191C8.88509 11.1988 10.6057 11.9207 12.4999 11.9207C13.4733 11.9273 14.4371 11.7275 15.3277 11.3345L16.5218 12.648C16.5624 12.6925 16.6119 12.728 16.667 12.7522C16.7222 12.7765 16.7818 12.7891 16.842 12.7891C16.9503 12.7881 17.0545 12.7475 17.1351 12.6751C17.1778 12.637 17.2124 12.5908 17.2369 12.5391C17.2615 12.4874 17.2754 12.4314 17.2779 12.3742C17.2805 12.317 17.2715 12.26 17.2517 12.2063C17.2318 12.1527 17.2014 12.1035 17.1622 12.0618L8.47802 2.50918ZM12.4999 9.53254C12.1428 9.53231 11.7926 9.43423 11.4874 9.24897C11.1821 9.0637 10.9335 8.79833 10.7685 8.48169C10.6034 8.16504 10.5283 7.80923 10.5513 7.45289C10.5742 7.09656 10.6944 6.75333 10.8987 6.4605L13.4606 9.27744C13.1683 9.44527 12.837 9.53324 12.4999 9.53254Z" fill="white"/>
</g>
<defs>
<clipPath id="clip0_418_4442">
<rect width="13.8947" height="13.8947" fill="white" transform="translate(5.55273 0.632812)"/>
</clipPath>
</defs>
</svg>
