<svg width="15" height="16" viewBox="0 0 15 16" fill="none" xmlns="http://www.w3.org/2000/svg">
<path d="M13.109 12.9712C14.2841 11.6468 15 9.90578 15 8C15 6.01716 14.2252 4.21302 12.9641 2.87052V2.87026C12.9631 2.86871 12.9616 2.86819 12.9608 2.8669C11.6472 1.4706 9.8069 0.57681 7.75991 0.506724L7.75965 0.506466L7.61353 0.502586C7.57578 0.501293 7.53802 0.5 7.5 0.5C7.46198 0.5 7.42422 0.501293 7.38647 0.502586L7.24086 0.506466L7.2406 0.506724C5.19362 0.57681 3.35328 1.4706 2.03974 2.8669C2.03871 2.86819 2.03716 2.86871 2.03638 2.87026C2.03638 2.87026 2.03638 2.87052 2.03612 2.87078C0.774828 4.21302 0 6.01716 0 8C0 9.90578 0.715862 11.6468 1.89103 12.9712C1.89259 12.9735 1.89259 12.9761 1.8944 12.9784C1.89905 12.9849 1.90578 12.988 1.91069 12.994C3.23121 14.4702 5.12586 15.4211 7.24034 15.4935L7.2406 15.4938L7.38621 15.4977C7.42422 15.4987 7.46198 15.5 7.5 15.5C7.53802 15.5 7.57578 15.4987 7.61353 15.4974L7.75914 15.4935L7.7594 15.4933C9.87621 15.4206 11.7729 14.4678 13.0934 12.9885C13.0968 12.9841 13.1022 12.9828 13.1053 12.9782C13.1074 12.9761 13.1074 12.9735 13.109 12.9712ZM0.523707 8.25862H3.62793C3.65716 9.35491 3.87129 10.4202 4.2525 11.4182C3.51698 11.6843 2.81379 12.0412 2.15483 12.4866C1.18578 11.3339 0.582672 9.86465 0.523707 8.25862ZM2.29603 3.35078C2.93948 3.76922 3.62457 4.1044 4.33914 4.35474C3.90155 5.4169 3.65948 6.56207 3.62793 7.74138H0.523707C0.585517 6.05853 1.24448 4.52621 2.29603 3.35078ZM14.4763 7.74138H11.3721C11.3405 6.56207 11.0984 5.4169 10.6609 4.35474C11.3754 4.1044 12.0605 3.76922 12.704 3.35078C13.7555 4.52621 14.4145 6.05853 14.4763 7.74138ZM7.24138 4.36974C6.49371 4.34853 5.75974 4.23707 5.0506 4.03793C5.57483 2.96259 6.315 1.99198 7.24138 1.18379V4.36974ZM7.24138 4.88698V7.74138H4.14517C4.17698 6.6169 4.41284 5.52629 4.83465 4.51509C5.61207 4.74034 6.41922 4.865 7.24138 4.88698ZM7.75862 4.88698C8.58078 4.865 9.38793 4.7406 10.1656 4.51509C10.5874 5.52629 10.8233 6.6169 10.8551 7.74138H7.75862V4.88698ZM7.75862 4.36974V1.18379C8.685 1.99198 9.42517 2.96259 9.9494 4.03793C9.24026 4.23707 8.50629 4.34853 7.75862 4.36974ZM10.4506 3.88069C9.95379 2.83974 9.26431 1.89138 8.4106 1.07853C9.92509 1.27664 11.2878 1.96147 12.3372 2.97112C11.7414 3.34922 11.1093 3.65336 10.4506 3.88069ZM4.5494 3.88069C3.89069 3.65336 3.25862 3.34922 2.66302 2.97112C3.71224 1.96147 5.07517 1.27664 6.58965 1.07853C5.73569 1.89138 5.04621 2.83974 4.5494 3.88069ZM4.14517 8.25862H7.24138V10.8547C6.38612 10.8774 5.54819 11.0109 4.74285 11.2532C4.37897 10.3079 4.1744 9.29802 4.14517 8.25862ZM7.24138 11.3719V14.8162C6.24983 13.9511 5.47241 12.9001 4.94379 11.7342C5.68526 11.5157 6.45543 11.3941 7.24138 11.3719ZM7.75862 14.8162V11.3719C8.54457 11.3939 9.31474 11.5157 10.0562 11.734C9.52759 12.9001 8.75017 13.9511 7.75862 14.8162ZM7.75862 10.8547V8.25862H10.8548C10.8256 9.29802 10.621 10.3079 10.2569 11.2534C9.45181 11.0109 8.61388 10.8774 7.75862 10.8547ZM11.3721 8.25862H14.4763C14.4173 9.86465 13.8145 11.3339 12.8452 12.4866C12.1862 12.0412 11.483 11.6843 10.7475 11.4182C11.129 10.4202 11.3428 9.35491 11.3721 8.25862ZM2.50629 12.874C3.11819 12.4674 3.76965 12.1405 4.45034 11.8961C4.95336 13.0237 5.67543 14.0512 6.5894 14.9215C4.99862 14.7133 3.57491 13.9684 2.50629 12.874ZM8.4106 14.9215C9.32457 14.0515 10.0466 13.024 10.5497 11.8961C11.2303 12.1405 11.8816 12.4674 12.4937 12.874C11.4251 13.9684 10.0014 14.7133 8.4106 14.9215Z" fill="white"/>
</svg>
