<svg width="25" height="25" viewBox="0 0 25 25" fill="none" xmlns="http://www.w3.org/2000/svg">
<g clip-path="url(#clip0_413_5572)">
<path d="M4.4 12.5C4.4 10.79 5.79 9.4 7.5 9.4H11.5V7.5H7.5C4.74 7.5 2.5 9.74 2.5 12.5C2.5 15.26 4.74 17.5 7.5 17.5H11.5V15.6H7.5C5.79 15.6 4.4 14.21 4.4 12.5ZM8.5 13.5H16.5V11.5H8.5V13.5ZM17.5 7.5H13.5V9.4H17.5C19.21 9.4 20.6 10.79 20.6 12.5C20.6 14.21 19.21 15.6 17.5 15.6H13.5V17.5H17.5C20.26 17.5 22.5 15.26 22.5 12.5C22.5 9.74 20.26 7.5 17.5 7.5Z" fill="white"/>
</g>
<defs>
<clipPath id="clip0_413_5572">
<rect width="24" height="24" fill="white" transform="translate(0.5 0.5)"/>
</clipPath>
</defs>
</svg>
