<svg width="60" height="60" viewBox="0 0 60 60" fill="none" xmlns="http://www.w3.org/2000/svg">
<g clip-path="url(#clip0_413_4320)">
<path d="M42.1875 9.375H48.75C49.2473 9.375 49.7242 9.57254 50.0758 9.92418C50.4275 10.2758 50.625 10.7527 50.625 11.25V17.8125" stroke="#388DCC" stroke-width="4.375" stroke-linecap="round" stroke-linejoin="round"/>
<path d="M42.1875 50.625H48.75C49.2473 50.625 49.7242 50.4275 50.0758 50.0758C50.4275 49.7242 50.625 49.2473 50.625 48.75V42.1875" stroke="#388DCC" stroke-width="4.375" stroke-linecap="round" stroke-linejoin="round"/>
<path d="M17.8125 50.625H11.25C10.7527 50.625 10.2758 50.4275 9.92418 50.0758C9.57254 49.7242 9.375 49.2473 9.375 48.75V42.1875" stroke="#388DCC" stroke-width="4.375" stroke-linecap="round" stroke-linejoin="round"/>
<path d="M17.8125 9.375H11.25C10.7527 9.375 10.2758 9.57254 9.92418 9.92418C9.57254 10.2758 9.375 10.7527 9.375 11.25V17.8125" stroke="#388DCC" stroke-width="4.375" stroke-linecap="round" stroke-linejoin="round"/>
<g clip-path="url(#clip1_413_4320)">
<path d="M37.2625 20.5875C37.1625 20.5875 37.0625 20.5625 36.975 20.5125C34.575 19.275 32.5 18.75 30.0125 18.75C27.5375 18.75 25.1875 19.3375 23.05 20.5125C22.75 20.675 22.375 20.5625 22.2 20.2625C22.0375 19.9625 22.15 19.575 22.45 19.4125C24.775 18.15 27.325 17.5 30.0125 17.5C32.675 17.5 35 18.0875 37.55 19.4C37.8625 19.5625 37.975 19.9375 37.8125 20.2375C37.7 20.4625 37.4875 20.5875 37.2625 20.5875ZM19.375 27.15C19.25 27.15 19.125 27.1125 19.0125 27.0375C18.725 26.8375 18.6625 26.45 18.8625 26.1625C20.1 24.4125 21.675 23.0375 23.55 22.075C27.475 20.05 32.5 20.0375 36.4375 22.0625C38.3125 23.025 39.8875 24.3875 41.125 26.125C41.325 26.4 41.2625 26.8 40.975 27C40.6875 27.2 40.3 27.1375 40.1 26.85C38.975 25.275 37.55 24.0375 35.8625 23.175C32.275 21.3375 27.6875 21.3375 24.1125 23.1875C22.4125 24.0625 20.9875 25.3125 19.8625 26.8875C19.7625 27.0625 19.575 27.15 19.375 27.15ZM27.1875 42.2375C27.025 42.2375 26.8625 42.175 26.75 42.05C25.6625 40.9625 25.075 40.2625 24.2375 38.75C23.375 37.2125 22.925 35.3375 22.925 33.325C22.925 29.6125 26.1 26.5875 30 26.5875C33.9 26.5875 37.075 29.6125 37.075 33.325C37.075 33.675 36.8 33.95 36.45 33.95C36.1 33.95 35.825 33.675 35.825 33.325C35.825 30.3 33.2125 27.8375 30 27.8375C26.7875 27.8375 24.175 30.3 24.175 33.325C24.175 35.125 24.575 36.7875 25.3375 38.1375C26.1375 39.575 26.6875 40.1875 27.65 41.1625C27.8875 41.4125 27.8875 41.8 27.65 42.05C27.5125 42.175 27.35 42.2375 27.1875 42.2375ZM36.15 39.925C34.6625 39.925 33.35 39.55 32.275 38.8125C30.4125 37.55 29.3 35.5 29.3 33.325C29.3 32.975 29.575 32.7 29.925 32.7C30.275 32.7 30.55 32.975 30.55 33.325C30.55 35.0875 31.45 36.75 32.975 37.775C33.8625 38.375 34.9 38.6625 36.15 38.6625C36.45 38.6625 36.95 38.625 37.45 38.5375C37.7875 38.475 38.1125 38.7 38.175 39.05C38.2375 39.3875 38.0125 39.7125 37.6625 39.775C36.95 39.9125 36.325 39.925 36.15 39.925ZM33.6375 42.5C33.5875 42.5 33.525 42.4875 33.475 42.475C31.4875 41.925 30.1875 41.1875 28.825 39.85C27.075 38.1125 26.1125 35.8 26.1125 33.325C26.1125 31.3 27.8375 29.65 29.9625 29.65C32.0875 29.65 33.8125 31.3 33.8125 33.325C33.8125 34.6625 34.975 35.75 36.4125 35.75C37.85 35.75 39.0125 34.6625 39.0125 33.325C39.0125 28.6125 34.95 24.7875 29.95 24.7875C26.4 24.7875 23.15 26.7625 21.6875 29.825C21.2 30.8375 20.95 32.025 20.95 33.325C20.95 34.3 21.0375 35.8375 21.7875 37.8375C21.9125 38.1625 21.75 38.525 21.425 38.6375C21.1 38.7625 20.7375 38.5875 20.625 38.275C20.0125 36.6375 19.7125 35.0125 19.7125 33.325C19.7125 31.825 20 30.4625 20.5625 29.275C22.225 25.7875 25.9125 23.525 29.95 23.525C35.6375 23.525 40.2625 27.9125 40.2625 33.3125C40.2625 35.3375 38.5375 36.9875 36.4125 36.9875C34.2875 36.9875 32.5625 35.3375 32.5625 33.3125C32.5625 31.975 31.4 30.8875 29.9625 30.8875C28.525 30.8875 27.3625 31.975 27.3625 33.3125C27.3625 35.45 28.1875 37.45 29.7 38.95C30.8875 40.125 32.025 40.775 33.7875 41.2625C34.125 41.35 34.3125 41.7 34.225 42.025C34.1625 42.3125 33.9 42.5 33.6375 42.5Z" fill="#388DCC"/>
</g>
</g>
<defs>
<clipPath id="clip0_413_4320">
<rect width="60" height="60" fill="white"/>
</clipPath>
<clipPath id="clip1_413_4320">
<rect width="30" height="30" fill="white" transform="translate(15 15)"/>
</clipPath>
</defs>
</svg>
