<svg width="40" height="37" viewBox="0 0 40 37" fill="none" xmlns="http://www.w3.org/2000/svg">
<path d="M19.9666 31.1457C10.3826 31.1457 2.66211 29.149 2.66211 27.1523V31.8112C2.66211 33.8079 10.3826 35.8046 19.9666 35.8046C29.5507 35.8046 37.2712 33.8079 37.2712 31.8112V27.1523C37.2712 29.149 29.5507 31.1457 19.9666 31.1457Z" fill="#08699B"/>
<path d="M19.9666 36.4702C12.5124 36.4702 1.99658 35.006 1.99658 31.8113V27.1523H3.32772C3.32772 28.2838 9.78361 30.4802 19.9666 30.4802C30.1497 30.4802 36.6056 28.2838 36.6056 27.1523H37.9367V31.8112C37.9367 35.0059 27.4209 36.4702 19.9666 36.4702ZM3.32772 28.9494V31.8112C3.32772 32.9427 9.78361 35.139 19.9666 35.139C30.1497 35.139 36.6056 32.9427 36.6056 31.8112V28.9494C33.7437 30.7464 26.7553 31.8112 19.9666 31.8112C13.178 31.8112 6.1896 30.7464 3.32772 28.9494Z" fill="#042F46"/>
<path d="M5.99024 34.7395C5.5909 34.7395 5.32471 34.4733 5.32471 34.0739V29.415C5.32471 29.0157 5.5909 28.7495 5.99024 28.7495C6.38957 28.7495 6.65577 29.0157 6.65577 29.415V34.0739C6.65577 34.4733 6.38957 34.7395 5.99024 34.7395Z" fill="#042F46"/>
<path d="M33.9434 34.7395C33.544 34.7395 33.2778 34.4733 33.2778 34.0739V29.415C33.2778 29.0157 33.544 28.7495 33.9434 28.7495C34.3427 28.7495 34.6089 29.0157 34.6089 29.415V34.0739C34.6089 34.4733 34.3427 34.7395 33.9434 34.7395Z" fill="#042F46"/>
<path d="M9.31788 35.5383C8.91854 35.5383 8.65234 35.2721 8.65234 34.8728V30.2139C8.65234 29.8145 8.91854 29.5483 9.31788 29.5483C9.71721 29.5483 9.98341 29.8145 9.98341 30.2139V34.8728C9.98341 35.2721 9.71721 35.5383 9.31788 35.5383Z" fill="#042F46"/>
<path d="M30.6157 35.5383C30.2164 35.5383 29.9502 35.2721 29.9502 34.8728V30.2139C29.9502 29.8145 30.2164 29.5483 30.6157 29.5483C31.0151 29.5483 31.2813 29.8145 31.2813 30.2139V34.8728C31.2813 35.2721 31.0151 35.5383 30.6157 35.5383Z" fill="#042F46"/>
<path d="M12.6455 36.0706C12.2462 36.0706 11.98 35.8044 11.98 35.4051V30.7461C11.98 30.3468 12.2462 30.0806 12.6455 30.0806C13.0448 30.0806 13.311 30.3468 13.311 30.7461V35.405C13.3111 35.7378 13.0448 36.0706 12.6455 36.0706Z" fill="#042F46"/>
<path d="M27.2881 36.0706C26.8888 36.0706 26.6226 35.8044 26.6226 35.4051V30.7461C26.6226 30.3468 26.8888 30.0806 27.2881 30.0806C27.6874 30.0806 27.9536 30.3468 27.9536 30.7461V35.405C27.9536 35.7378 27.6874 36.0706 27.2881 36.0706Z" fill="#042F46"/>
<path d="M15.9731 36.3371C15.5738 36.3371 15.3076 36.0709 15.3076 35.6716V31.0127C15.3076 30.6134 15.5738 30.3472 15.9731 30.3472C16.3725 30.3472 16.6387 30.6134 16.6387 31.0127V35.6716C16.6387 36.0709 16.3725 36.3371 15.9731 36.3371Z" fill="#042F46"/>
<path d="M23.96 36.3371C23.5606 36.3371 23.2944 36.0709 23.2944 35.6716V31.0127C23.2944 30.6134 23.5606 30.3472 23.96 30.3472C24.3593 30.3472 24.6255 30.6134 24.6255 31.0127V35.6716C24.6255 36.0709 24.3593 36.3371 23.96 36.3371Z" fill="#042F46"/>
<path d="M19.9668 36.47C19.5675 36.47 19.3013 36.2038 19.3013 35.8045V31.1455C19.3013 30.7462 19.5675 30.48 19.9668 30.48C20.3661 30.48 20.6323 30.7462 20.6323 31.1455V35.8044C20.6323 36.2037 20.3661 36.47 19.9668 36.47Z" fill="#042F46"/>
<path d="M17.9701 23.8244C8.38602 23.8244 0.665527 21.8277 0.665527 19.8311V24.4899C0.665527 26.4866 8.38602 28.4833 17.9701 28.4833C27.5541 28.4833 35.2746 26.4866 35.2746 24.4899V19.8311C35.2746 21.8277 27.5541 23.8244 17.9701 23.8244Z" fill="#08699B"/>
<path d="M17.9701 29.1489C10.5158 29.1489 0 27.6847 0 24.49V19.8311H1.33114C1.33114 20.9625 7.78703 23.1589 17.9701 23.1589C28.1531 23.1589 34.609 20.9625 34.609 19.8311H35.9401V24.4899C35.9401 27.6847 25.4243 29.1489 17.9701 29.1489ZM1.33114 21.6281V24.4899C1.33114 25.6214 7.78703 27.8177 17.9701 27.8177C28.1531 27.8177 34.609 25.6214 34.609 24.4899V21.6281C31.7471 23.4251 24.7588 24.4899 17.9701 24.4899C11.1814 24.4899 4.19301 23.4251 1.33114 21.6281Z" fill="#042F46"/>
<path d="M3.99317 27.4187C3.59383 27.4187 3.32764 27.1525 3.32764 26.7531V22.0942C3.32764 21.6949 3.59383 21.4287 3.99317 21.4287C4.3925 21.4287 4.6587 21.6949 4.6587 22.0942V26.7531C4.6587 27.1525 4.3925 27.4187 3.99317 27.4187Z" fill="#042F46"/>
<path d="M31.9468 27.4187C31.5474 27.4187 31.2812 27.1525 31.2812 26.7531V22.0942C31.2812 21.6949 31.5474 21.4287 31.9468 21.4287C32.3461 21.4287 32.6123 21.6949 32.6123 22.0942V26.7531C32.6123 27.1525 32.3461 27.4187 31.9468 27.4187Z" fill="#042F46"/>
<path d="M7.32129 28.217C6.92196 28.217 6.65576 27.9508 6.65576 27.5515V22.8926C6.65576 22.4932 6.92196 22.2271 7.32129 22.2271C7.72063 22.2271 7.98683 22.4932 7.98683 22.8926V27.5515C7.98683 27.9508 7.72063 28.217 7.32129 28.217Z" fill="#042F46"/>
<path d="M28.6191 28.217C28.2198 28.217 27.9536 27.9508 27.9536 27.5515V22.8926C27.9536 22.4932 28.2198 22.2271 28.6191 22.2271C29.0185 22.2271 29.2847 22.4932 29.2847 22.8926V27.5515C29.2848 27.9508 29.0185 28.217 28.6191 28.217Z" fill="#042F46"/>
<path d="M10.6489 28.7497C10.2496 28.7497 9.9834 28.4835 9.9834 28.0842V23.4253C9.9834 23.026 10.2496 22.7598 10.6489 22.7598C11.0483 22.7598 11.3145 23.026 11.3145 23.4253V28.0842C11.3145 28.4169 11.0483 28.7497 10.6489 28.7497Z" fill="#042F46"/>
<path d="M25.291 28.7497C24.8917 28.7497 24.6255 28.4835 24.6255 28.0842V23.4253C24.6255 23.026 24.8917 22.7598 25.291 22.7598C25.6904 22.7598 25.9566 23.026 25.9566 23.4253V28.0842C25.9566 28.4169 25.6904 28.7497 25.291 28.7497Z" fill="#042F46"/>
<path d="M13.9766 29.0158C13.5772 29.0158 13.311 28.7496 13.311 28.3503V23.6914C13.311 23.2921 13.5772 23.0259 13.9766 23.0259C14.3759 23.0259 14.6421 23.2921 14.6421 23.6914V28.3503C14.6421 28.7496 14.3759 29.0158 13.9766 29.0158Z" fill="#042F46"/>
<path d="M21.9634 29.0158C21.5641 29.0158 21.2979 28.7496 21.2979 28.3503V23.6914C21.2979 23.2921 21.5641 23.0259 21.9634 23.0259C22.3627 23.0259 22.6289 23.2921 22.6289 23.6914V28.3503C22.6289 28.7496 22.3627 29.0158 21.9634 29.0158Z" fill="#042F46"/>
<path d="M17.9702 29.1491C17.5709 29.1491 17.3047 28.8829 17.3047 28.4836V23.8247C17.3047 23.4254 17.5709 23.1592 17.9702 23.1592C18.3696 23.1592 18.6358 23.4254 18.6358 23.8247V28.4836C18.6358 28.8829 18.3696 29.1491 17.9702 29.1491Z" fill="#042F46"/>
<path d="M21.9632 16.5036C12.3792 16.5036 4.65869 14.5069 4.65869 12.5103V17.1691C4.65869 19.1658 12.3792 21.1625 21.9632 21.1625C31.5473 21.1625 39.2678 19.1658 39.2678 17.1691V12.5103C39.2678 14.5069 31.5473 16.5036 21.9632 16.5036Z" fill="#08699B"/>
<path d="M21.9632 21.828C14.509 21.828 3.99316 20.3638 3.99316 17.1691V12.5103H5.32431C5.32431 13.6417 11.7802 15.8381 21.9632 15.8381C32.1463 15.8381 38.6021 13.6417 38.6021 12.5103H39.9333V17.1691C39.9333 20.3638 29.4174 21.828 21.9632 21.828ZM5.32431 14.3073V17.1691C5.32431 18.3006 11.7802 20.4969 21.9632 20.4969C32.1463 20.4969 38.6021 18.3006 38.6021 17.1691V14.3073C35.7403 16.1043 28.7519 17.1691 21.9632 17.1691C15.1745 17.1691 8.18618 16.1043 5.32431 14.3073Z" fill="#042F46"/>
<path d="M7.98682 20.0974C7.58749 20.0974 7.32129 19.8312 7.32129 19.4319V14.773C7.32129 14.3736 7.58749 14.1074 7.98682 14.1074C8.38616 14.1074 8.65235 14.3736 8.65235 14.773V19.4318C8.65235 19.8312 8.38616 20.0974 7.98682 20.0974Z" fill="#042F46"/>
<path d="M35.9399 20.0974C35.5406 20.0974 35.2744 19.8312 35.2744 19.4319V14.773C35.2744 14.3736 35.5406 14.1074 35.9399 14.1074C36.3393 14.1074 36.6055 14.3736 36.6055 14.773V19.4318C36.6055 19.8312 36.3393 20.0974 35.9399 20.0974Z" fill="#042F46"/>
<path d="M11.3145 20.8963C10.9151 20.8963 10.6489 20.6301 10.6489 20.2307V15.5718C10.6489 15.1724 10.9151 14.9062 11.3145 14.9062C11.7138 14.9062 11.98 15.1724 11.98 15.5718V20.2307C11.98 20.63 11.7138 20.8963 11.3145 20.8963Z" fill="#042F46"/>
<path d="M32.6123 20.8963C32.213 20.8963 31.9468 20.6301 31.9468 20.2307V15.5718C31.9468 15.1724 32.213 14.9062 32.6123 14.9062C33.0116 14.9062 33.2778 15.1724 33.2778 15.5718V20.2307C33.2779 20.63 33.0116 20.8963 32.6123 20.8963Z" fill="#042F46"/>
<path d="M14.6421 21.4284C14.2428 21.4284 13.9766 21.1622 13.9766 20.7629V16.104C13.9766 15.7047 14.2428 15.4385 14.6421 15.4385C15.0414 15.4385 15.3076 15.7047 15.3076 16.104V20.7629C15.3077 21.0957 15.0414 21.4284 14.6421 21.4284Z" fill="#042F46"/>
<path d="M29.2847 21.4284C28.8853 21.4284 28.6191 21.1622 28.6191 20.7629V16.104C28.6191 15.7047 28.8853 15.4385 29.2847 15.4385C29.684 15.4385 29.9502 15.7047 29.9502 16.104V20.7629C29.9502 21.0957 29.684 21.4284 29.2847 21.4284Z" fill="#042F46"/>
<path d="M17.9702 21.6946C17.5709 21.6946 17.3047 21.4284 17.3047 21.0291V16.3701C17.3047 15.9708 17.5709 15.7046 17.9702 15.7046C18.3696 15.7046 18.6358 15.9708 18.6358 16.3701V21.029C18.6358 21.4283 18.3696 21.6946 17.9702 21.6946Z" fill="#042F46"/>
<path d="M25.9565 21.6946C25.5572 21.6946 25.291 21.4284 25.291 21.0291V16.3701C25.291 15.9708 25.5572 15.7046 25.9565 15.7046C26.3559 15.7046 26.6221 15.9708 26.6221 16.3701V21.029C26.6221 21.4283 26.3559 21.6946 25.9565 21.6946Z" fill="#042F46"/>
<path d="M21.9634 21.8278C21.5641 21.8278 21.2979 21.5616 21.2979 21.1623V16.5034C21.2979 16.1041 21.5641 15.8379 21.9634 15.8379C22.3627 15.8379 22.6289 16.1041 22.6289 16.5034V21.1623C22.6289 21.5616 22.3627 21.8278 21.9634 21.8278Z" fill="#042F46"/>
<path d="M35.2746 4.5899C35.2746 6.58658 27.5541 8.51672 17.9701 8.51672C8.38602 8.51672 0.665527 6.65311 0.665527 4.5899C0.665527 2.59323 8.38602 1.19556 17.9701 1.19556C27.5541 1.19556 35.2746 2.59323 35.2746 4.5899Z" fill="#388DCC"/>
<path d="M17.9701 9.18226C9.25123 9.18226 0 7.58492 0 4.58991C0 0.663089 16.1065 0.530029 17.9701 0.530029C19.8336 0.530029 35.9401 0.663167 35.9401 4.58991C35.9401 7.58492 26.6889 9.18226 17.9701 9.18226ZM17.9701 1.86109C6.92183 1.86109 1.33114 3.59157 1.33114 4.58991C1.33114 5.72138 7.65397 7.85111 17.9701 7.85111C28.2862 7.85111 34.609 5.72138 34.609 4.58991C34.609 3.59157 29.0183 1.86109 17.9701 1.86109Z" fill="#042F46"/>
<path d="M17.9701 8.51679C8.38602 8.51679 0.665527 6.52011 0.665527 4.52344V9.18232C0.665527 11.179 8.38602 13.1757 17.9701 13.1757C27.5541 13.1757 35.2746 11.179 35.2746 9.18232V4.52344C35.2746 6.52011 27.5541 8.51679 17.9701 8.51679Z" fill="#08699B"/>
<path d="M17.9701 13.8412C10.5158 13.8412 0 12.377 0 9.18232V4.52344H1.33114C1.33114 5.65491 7.78703 7.85125 17.9701 7.85125C28.1531 7.85125 34.609 5.65491 34.609 4.52344H35.9401V9.18232C35.9401 12.377 25.4243 13.8412 17.9701 13.8412ZM1.33114 6.32044V9.18232C1.33114 10.3138 7.78703 12.5101 17.9701 12.5101C28.1531 12.5101 34.609 10.3138 34.609 9.18232V6.32044C31.7471 8.11745 24.7588 9.18232 17.9701 9.18232C11.1814 9.18232 4.19301 8.11745 1.33114 6.32044Z" fill="#042F46"/>
<path d="M3.99317 12.1106C3.59383 12.1106 3.32764 11.8444 3.32764 11.4451V6.78614C3.32764 6.3868 3.59383 6.12061 3.99317 6.12061C4.3925 6.12061 4.6587 6.3868 4.6587 6.78614V11.445C4.6587 11.8444 4.3925 12.1106 3.99317 12.1106Z" fill="#042F46"/>
<path d="M31.9468 12.1106C31.5474 12.1106 31.2812 11.8444 31.2812 11.4451V6.78614C31.2812 6.3868 31.5474 6.12061 31.9468 6.12061C32.3461 6.12061 32.6123 6.3868 32.6123 6.78614V11.445C32.6123 11.8444 32.3461 12.1106 31.9468 12.1106Z" fill="#042F46"/>
<path d="M7.32129 12.9095C6.92196 12.9095 6.65576 12.6433 6.65576 12.2439V7.58497C6.65576 7.18563 6.92196 6.91943 7.32129 6.91943C7.72063 6.91943 7.98683 7.18563 7.98683 7.58497V12.2438C7.98683 12.6432 7.72063 12.9095 7.32129 12.9095Z" fill="#042F46"/>
<path d="M28.6191 12.9095C28.2198 12.9095 27.9536 12.6433 27.9536 12.2439V7.58497C27.9536 7.18563 28.2198 6.91943 28.6191 6.91943C29.0185 6.91943 29.2847 7.18563 29.2847 7.58497V12.2438C29.2848 12.6432 29.0185 12.9095 28.6191 12.9095Z" fill="#042F46"/>
<path d="M10.6489 13.4418C10.2496 13.4418 9.9834 13.1756 9.9834 12.7763V8.11744C9.9834 7.7181 10.2496 7.4519 10.6489 7.4519C11.0483 7.4519 11.3145 7.7181 11.3145 8.11744V12.7763C11.3145 13.1091 11.0483 13.4418 10.6489 13.4418Z" fill="#042F46"/>
<path d="M25.291 13.4418C24.8917 13.4418 24.6255 13.1756 24.6255 12.7763V8.11744C24.6255 7.7181 24.8917 7.4519 25.291 7.4519C25.6904 7.4519 25.9566 7.7181 25.9566 8.11744V12.7763C25.9566 13.1091 25.6904 13.4418 25.291 13.4418Z" fill="#042F46"/>
<path d="M13.9766 13.708C13.5772 13.708 13.311 13.4418 13.311 13.0425V8.38355C13.311 7.98422 13.5772 7.71802 13.9766 7.71802C14.3759 7.71802 14.6421 7.98422 14.6421 8.38355V13.0424C14.6421 13.4418 14.3759 13.708 13.9766 13.708Z" fill="#042F46"/>
<path d="M21.9634 13.708C21.5641 13.708 21.2979 13.4418 21.2979 13.0425V8.38355C21.2979 7.98422 21.5641 7.71802 21.9634 7.71802C22.3627 7.71802 22.6289 7.98422 22.6289 8.38355V13.0424C22.6289 13.4418 22.3627 13.708 21.9634 13.708Z" fill="#042F46"/>
<path d="M17.9702 13.841C17.5709 13.841 17.3047 13.5748 17.3047 13.1755V8.51661C17.3047 8.11727 17.5709 7.85107 17.9702 7.85107C18.3696 7.85107 18.6358 8.11727 18.6358 8.51661V13.1755C18.6358 13.5748 18.3696 13.841 17.9702 13.841Z" fill="#042F46"/>
<path d="M34.742 25.4219C32.8785 27.0857 26.0898 28.4834 17.97 28.4834C11.6471 28.4834 6.12306 27.6182 3.06144 26.4202C2.79525 26.6864 2.66211 26.9527 2.66211 27.2189C2.66211 29.2156 10.3826 31.1457 19.9666 31.1457C29.5507 31.1457 37.2712 29.2822 37.2712 27.2189C37.2712 26.5533 36.3394 25.8878 34.742 25.4219Z" fill="#388DCC"/>
<path d="M19.9666 31.811C11.2478 31.811 1.99658 30.2137 1.99658 27.2186C1.99658 26.7528 2.19625 26.3534 2.66211 25.9541L2.99492 25.6879L3.32772 25.8211C6.5224 27.0191 12.1131 27.8177 17.97 27.8177C26.4225 27.8177 32.6788 26.2869 34.3427 24.8892L34.6089 24.623L34.9417 24.7561C36.9384 25.4216 37.9367 26.2203 37.9367 27.2186C37.9367 30.2137 28.6855 31.811 19.9666 31.811ZM3.32772 27.2186C3.32772 28.3501 9.65055 30.4799 19.9666 30.4799C30.2827 30.4799 36.6056 28.35 36.6056 27.2186C36.6056 27.0855 36.2728 26.6196 34.8751 26.1538C32.4125 27.8843 25.4907 29.1488 17.9699 29.1488C12.2461 29.1488 6.72207 28.4167 3.32772 27.2186Z" fill="#042F46"/>
<path d="M21.9634 21.1622C13.178 21.1622 5.92349 19.4984 4.79201 17.6348C2.19634 18.2338 0.665527 19.0324 0.665527 19.8976C0.665527 21.8943 8.38602 23.8245 17.9701 23.8245C27.5541 23.8245 35.2746 21.9609 35.2746 19.8976C35.2746 19.8311 35.2746 19.698 35.2081 19.6314C32.0799 20.5632 27.2879 21.1622 21.9634 21.1622Z" fill="#388DCC"/>
<path d="M17.9701 24.4899C9.25123 24.4899 0 22.8926 0 19.8976C0 18.633 1.53081 17.7012 4.65888 16.9691L5.12474 16.8359L5.39094 17.2353C6.18961 18.6329 12.5124 20.4965 21.9633 20.4965C26.955 20.4965 31.6805 19.964 35.0748 19.0323L35.6738 18.8326L35.8735 19.4316C35.94 19.6313 35.94 19.7644 35.94 19.8975C35.9401 22.8926 26.6889 24.4899 17.9701 24.4899ZM4.52582 18.3667C1.86361 19.0323 1.33114 19.6979 1.33114 19.8976C1.33114 21.029 7.65397 23.1588 17.9701 23.1588C26.2896 23.1588 32.0133 21.8276 33.8769 20.6962C30.6157 21.4284 26.3561 21.8277 21.9634 21.8277C13.7105 21.8276 6.52249 20.3634 4.52582 18.3667Z" fill="#042F46"/>
<path d="M34.6092 10.1807C32.546 11.8445 25.8904 13.1757 17.9703 13.1757C12.8455 13.1757 8.25311 12.6432 5.12504 11.778C4.79224 12.0442 4.65918 12.3105 4.65918 12.5767C4.65918 14.5733 12.3797 16.5035 21.9637 16.5035C31.5477 16.5035 39.2682 14.64 39.2682 12.5767C39.2682 11.6449 37.4712 10.7797 34.6092 10.1807Z" fill="#388DCC"/>
<path d="M21.9632 17.169C13.2444 17.169 3.99316 15.5716 3.99316 12.5766C3.99316 12.1108 4.19283 11.6448 4.6587 11.2455L4.92497 10.9793L5.25778 11.0458C8.58559 11.911 13.1779 12.4435 17.97 12.4435C26.1563 12.4435 32.4125 10.9793 34.2095 9.64815L34.4757 9.44849L34.8085 9.51502C38.336 10.2472 39.9999 11.2455 39.9999 12.5766C39.9333 15.5716 30.6821 17.169 21.9632 17.169ZM5.32431 12.5101V12.5766C5.32431 13.7081 11.6471 15.8378 21.9632 15.8378C32.2793 15.8378 38.6021 13.708 38.6021 12.5766C38.6021 12.3104 37.87 11.5783 34.7419 10.9128C32.2128 12.6432 25.4241 13.8412 17.9699 13.8412C13.311 13.8412 8.71865 13.3753 5.32431 12.5101Z" fill="#042F46"/>
</svg>
