<svg width="28" height="28" viewBox="0 0 28 28" fill="none" xmlns="http://www.w3.org/2000/svg">
<path d="M13.9998 25.6667C15.2832 25.6667 16.3332 24.6167 16.3332 23.3334H11.6665C11.6665 24.6167 12.7048 25.6667 13.9998 25.6667ZM20.9998 18.6667V12.8334C20.9998 9.25175 19.0865 6.25341 15.7498 5.46008V4.66675C15.7498 3.69841 14.9682 2.91675 13.9998 2.91675C13.0315 2.91675 12.2498 3.69841 12.2498 4.66675V5.46008C8.9015 6.25341 6.99984 9.24008 6.99984 12.8334V18.6667L4.6665 21.0001V22.1667H23.3332V21.0001L20.9998 18.6667Z" fill="#08699B"/>
<path d="M24.5 8.16675C24.5 10.0997 22.933 11.6667 21 11.6667C19.067 11.6667 17.5 10.0997 17.5 8.16675C17.5 6.23375 19.067 4.66675 21 4.66675C22.933 4.66675 24.5 6.23375 24.5 8.16675Z" fill="#DC1E38"/>
<path fill-rule="evenodd" clip-rule="evenodd" d="M21 10.6667C22.3807 10.6667 23.5 9.54746 23.5 8.16675C23.5 6.78604 22.3807 5.66675 21 5.66675C19.6193 5.66675 18.5 6.78604 18.5 8.16675C18.5 9.54746 19.6193 10.6667 21 10.6667ZM21 11.6667C22.933 11.6667 24.5 10.0997 24.5 8.16675C24.5 6.23375 22.933 4.66675 21 4.66675C19.067 4.66675 17.5 6.23375 17.5 8.16675C17.5 10.0997 19.067 11.6667 21 11.6667Z" fill="#0C9EE8"/>
</svg>
