<svg width="20" height="20" viewBox="0 0 20 20" fill="none" xmlns="http://www.w3.org/2000/svg">
<path d="M17.9503 9.2085H2.04199V18.7502H17.9503V9.2085Z" stroke="#388DCC" stroke-miterlimit="10"/>
<path d="M10.0003 1.25C10.7313 1.25 11.4552 1.39399 12.1305 1.67374C12.8059 1.95349 13.4196 2.36353 13.9365 2.88044C14.4534 3.39735 14.8634 4.01102 15.1432 4.6864C15.4229 5.36177 15.5669 6.08564 15.5669 6.81667V9.16667H4.43359V6.81667C4.43359 5.3403 5.02008 3.92439 6.06403 2.88044C7.10799 1.83649 8.52389 1.25 10.0003 1.25V1.25Z" stroke="#388DCC" stroke-miterlimit="10"/>
<path d="M9.99967 13.9749C10.4369 13.9749 10.7913 13.6205 10.7913 13.1833C10.7913 12.746 10.4369 12.3916 9.99967 12.3916C9.56245 12.3916 9.20801 12.746 9.20801 13.1833C9.20801 13.6205 9.56245 13.9749 9.99967 13.9749Z" stroke="#388DCC" stroke-miterlimit="10"/>
<path d="M10 16.3668V13.9751" stroke="#388DCC" stroke-miterlimit="10"/>
</svg>
