<svg width="20" height="16" viewBox="0 0 20 16" fill="none" xmlns="http://www.w3.org/2000/svg">
<path fill-rule="evenodd" clip-rule="evenodd" d="M9.58158 15.1339C10.1395 14.6457 10.1395 13.8543 9.58158 13.3661L4.87745 9.25L18.5714 9.25C19.3604 9.25 20 8.69036 20 8C20 7.30964 19.3604 6.75 18.5714 6.75L4.87745 6.75L9.58158 2.63388C10.1395 2.14573 10.1395 1.35427 9.58158 0.866117C9.02369 0.377961 8.11917 0.377961 7.56128 0.866117L0.418419 7.11612C0.139473 7.36019 5.61651e-09 7.6801 5.86674e-09 8C5.99932e-09 8.16949 0.0385508 8.3311 0.108398 8.47848C0.177598 8.62482 0.27993 8.762 0.415394 8.88123M0.41875 8.88417L7.56128 15.1339C8.11917 15.622 9.02369 15.622 9.58158 15.1339" fill="#181B24"/>
</svg>
