<svg width="16" height="16" viewBox="0 0 16 16" fill="none" xmlns="http://www.w3.org/2000/svg">
<path d="M7.99985 7.45088C5.94563 7.45088 4.27441 5.77963 4.27441 3.72544C4.27441 1.67125 5.94563 0 7.99985 0C10.054 0 11.7253 1.67125 11.7253 3.72544C11.7253 5.77963 10.054 7.45088 7.99985 7.45088Z" fill="#042F46"/>
<path d="M12.9447 16H3.0554C2.72143 16 2.45068 15.7293 2.45068 15.3953V13.4774C2.45068 10.4174 4.94012 7.92798 8.00006 7.92798C11.06 7.92798 13.5494 10.4174 13.5494 13.4774V15.3953C13.5494 15.7293 13.2787 16 12.9447 16Z" fill="#042F46"/>
<path d="M8 0V7.45088C10.0542 7.45088 11.7254 5.77963 11.7254 3.72544C11.7254 1.67119 10.0542 0 8 0Z" fill="#388DCC"/>
<path d="M8 7.92786V16H12.9447C13.2786 16 13.5494 15.7292 13.5494 15.3952V13.4773C13.5494 10.4173 11.0599 7.92786 8 7.92786Z" fill="#388DCC"/>
</svg>
