<svg width="15" height="16" viewBox="0 0 15 16" fill="none" xmlns="http://www.w3.org/2000/svg">
<path d="M9.64307 0.5V5.85714H15.0002V0.5H9.64307ZM13.9288 4.78571H10.7145V1.57143H13.9288V4.78571Z" fill="white"/>
<path d="M3.21449 2.64258H2.14307V3.71401H3.21449V2.64258Z" fill="white"/>
<path d="M12.8571 2.64258H11.7856V3.71401H12.8571V2.64258Z" fill="white"/>
<path d="M8.57157 2.64286H7.50014V1.57143H8.57157V0.5H6.42871V3.71429H7.50014V4.78571H8.57157V2.64286Z" fill="white"/>
<path d="M5.35714 5.85714V0.5H0V5.85714H1.07143H5.35714ZM1.07143 1.57143H4.28571V4.78571H1.07143V1.57143Z" fill="white"/>
<path d="M0 6.92871V9.07157H1.07143V8.00014H2.14286V6.92871H0Z" fill="white"/>
<path d="M7.50014 8.00042H8.57157V5.85756H7.50014V4.78613H6.42871V6.92899H7.50014V8.00042Z" fill="white"/>
<path d="M12.8571 6.92871H11.7856V8.00014H12.8571V6.92871Z" fill="white"/>
<path d="M15.0001 6.92871H13.9287V8.00014H15.0001V6.92871Z" fill="white"/>
<path d="M10.7141 9.07157V10.143H11.7856V11.2144H12.857V9.07157H11.7856V8.00014H10.7141V6.92871H9.64272V8.00014H8.57129V9.07157H10.7141Z" fill="white"/>
<path d="M13.9284 8H12.8569V9.07143H13.9284V8Z" fill="white"/>
<path d="M0 10.1426V15.4997H5.35714V10.1426H0ZM4.28571 14.4283H1.07143V11.214H4.28571V14.4283Z" fill="white"/>
<path d="M8.57164 9.07157H7.50021V8.00014H6.42878V6.92871H3.21449V8.00014H2.14307V9.07157H4.28592V8.00014H5.35735V9.07157H6.42878V10.143H7.50021V11.2144H8.57164V9.07157Z" fill="white"/>
<path d="M10.7145 10.1426H9.64307V11.214H10.7145V10.1426Z" fill="white"/>
<path d="M15.0001 9.07129H13.9287V11.2141H15.0001V9.07129Z" fill="white"/>
<path d="M11.7858 11.2139H10.7144V12.2853H11.7858V11.2139Z" fill="white"/>
<path d="M13.9284 11.2139H12.8569V12.2853H13.9284V11.2139Z" fill="white"/>
<path d="M3.21449 12.2861H2.14307V13.3576H3.21449V12.2861Z" fill="white"/>
<path d="M10.7144 13.3567V12.2853H9.643V11.2139H8.57157V12.2853H7.50014V11.2139H6.42871V13.3567H7.50014V14.4282H8.57157V13.3567H10.7144Z" fill="white"/>
<path d="M11.7858 13.3576H10.7144V14.429H11.7858V15.5004H12.8572V12.2861H11.7858V13.3576Z" fill="white"/>
<path d="M15.0001 12.2861H13.9287V13.3576H15.0001V12.2861Z" fill="white"/>
<path d="M7.50014 14.4287H6.42871V15.5001H7.50014V14.4287Z" fill="white"/>
<path d="M10.7141 14.4287H8.57129V15.5001H10.7141V14.4287Z" fill="white"/>
<path d="M15.0001 14.4287H13.9287V15.5001H15.0001V14.4287Z" fill="white"/>
</svg>
