<svg width="44" height="41" viewBox="0 0 44 41" fill="none" xmlns="http://www.w3.org/2000/svg">
<g clip-path="url(#clip0_413_5765)">
<path d="M20.8946 13.249C23.612 13.249 25.8151 15.4522 25.8151 18.1695C25.8151 20.8869 23.612 23.0901 20.8946 23.0901C18.1767 23.0901 15.9741 20.8869 15.9741 18.1696C15.9741 15.4522 18.1767 13.249 20.8946 13.249Z" fill="#042F46"/>
<path d="M20.8947 21.5481C22.7606 21.5481 24.2732 20.0355 24.2732 18.1696C24.2732 16.3036 22.7606 14.791 20.8947 14.791C19.0287 14.791 17.5161 16.3036 17.5161 18.1696C17.5161 20.0355 19.0287 21.5481 20.8947 21.5481Z" fill="#042F46"/>
<path d="M25.8152 18.1695C25.8152 18.6594 25.7437 19.133 25.6099 19.5795C25.0035 21.6102 23.1221 23.09 20.8946 23.09C18.1767 23.09 15.9741 20.8869 15.9741 18.1695C15.9741 15.4522 18.1767 13.249 20.8946 13.249C20.9094 13.249 20.9237 13.249 20.9385 13.2496C23.6358 13.2728 25.8152 15.4669 25.8152 18.1695Z" fill="#042F46"/>
<path d="M25.8148 18.1695C25.8148 18.6594 25.7434 19.1329 25.6095 19.5795C22.9117 19.5562 20.7329 17.3621 20.7329 14.6595C20.7329 14.1696 20.8043 13.6961 20.9382 13.2495C23.6355 13.2728 25.8148 15.4669 25.8148 18.1695Z" fill="#08699B"/>
<path d="M18.7022 0.5C21.4196 0.5 23.6227 2.70313 23.6227 5.42049C23.6227 8.13786 21.4196 10.341 18.7022 10.341C15.9843 10.341 13.7817 8.13786 13.7817 5.42049C13.7817 2.70313 15.9843 0.5 18.7022 0.5Z" fill="#042F46"/>
<path d="M23.6228 5.42049C23.6228 2.70313 21.4196 0.5 18.7023 0.5C15.9843 0.5 13.7817 2.70313 13.7817 5.42049C13.7817 8.13786 15.9843 10.341 18.7022 10.341C21.4196 10.341 23.6228 8.1379 23.6228 5.42049Z" fill="#042F46"/>
<path d="M18.7023 8.79911C20.5682 8.79911 22.0808 7.28648 22.0808 5.42055C22.0808 3.55462 20.5682 2.04199 18.7023 2.04199C16.8364 2.04199 15.3237 3.55462 15.3237 5.42055C15.3237 7.28648 16.8364 8.79911 18.7023 8.79911Z" fill="#042F46"/>
<path d="M18.7024 9.14311C16.6499 9.14311 14.98 7.47323 14.98 5.42068C14.98 3.36813 16.6499 1.69824 18.7024 1.69824C20.755 1.69824 22.4249 3.36813 22.4249 5.42068C22.4249 7.47323 20.755 9.14311 18.7024 9.14311ZM18.7024 2.38604C17.0291 2.38604 15.6678 3.74739 15.6678 5.42068C15.6678 7.09396 17.0291 8.45531 18.7024 8.45531C20.3757 8.45531 21.7371 7.09396 21.7371 5.42068C21.7371 3.74739 20.3757 2.38604 18.7024 2.38604Z" fill="#5DBEF0"/>
<path d="M20.8943 21.8921C18.8418 21.8921 17.1719 20.2222 17.1719 18.1697C17.1719 16.1172 18.8418 14.4473 20.8943 14.4473C22.9469 14.4473 24.6167 16.1172 24.6167 18.1697C24.6167 20.2222 22.9469 21.8921 20.8943 21.8921ZM20.8943 15.1351C19.221 15.1351 17.8597 16.4964 17.8597 18.1697C17.8597 19.843 19.221 21.2043 20.8943 21.2043C22.5676 21.2043 23.9289 19.843 23.9289 18.1697C23.9289 16.4964 22.5676 15.1351 20.8943 15.1351Z" fill="#5DBEF0"/>
<path d="M26.2154 9.177C28.9328 9.177 31.1359 11.3801 31.1359 14.0975C31.1359 16.8149 28.9328 19.018 26.2154 19.018C23.4975 19.018 21.2949 16.8149 21.2949 14.0975C21.2949 11.3801 23.4975 9.177 26.2154 9.177Z" fill="#042F46"/>
<path d="M31.1359 14.0975C31.1359 11.3801 28.9328 9.177 26.2154 9.177C23.4975 9.177 21.2949 11.3801 21.2949 14.0975C21.2949 16.8149 23.4975 19.018 26.2154 19.018C28.9328 19.018 31.1359 16.8149 31.1359 14.0975Z" fill="#042F46"/>
<path d="M26.2155 17.4761C28.0814 17.4761 29.594 15.9635 29.594 14.0976C29.594 12.2316 28.0814 10.719 26.2155 10.719C24.3495 10.719 22.8369 12.2316 22.8369 14.0976C22.8369 15.9635 24.3495 17.4761 26.2155 17.4761Z" fill="#042F46"/>
<path d="M26.2156 17.8201C24.1631 17.8201 22.4932 16.1502 22.4932 14.0977C22.4932 12.0451 24.1631 10.3752 26.2156 10.3752C28.2681 10.3752 29.938 12.0451 29.938 14.0977C29.938 16.1502 28.2681 17.8201 26.2156 17.8201ZM26.2156 11.063C24.5423 11.063 23.181 12.4244 23.181 14.0976C23.181 15.7709 24.5423 17.1323 26.2156 17.1323C27.8889 17.1323 29.2502 15.7709 29.2502 14.0976C29.2502 12.4244 27.8889 11.063 26.2156 11.063Z" fill="#5DBEF0"/>
</g>
<path d="M34.5128 23.6193L29.0594 26.2048C29.43 26.2225 30.3566 26.2489 30.3566 26.2489L30.939 27.0166L35.7658 24.5018L34.5128 23.6193ZM29.7036 23.6282L24.6385 26.0283C25.1238 26.0548 26.271 26.0725 26.7298 26.0989L31.1243 24.0164L29.7036 23.6282ZM37.8748 24.5812L31.6537 27.8814L32.9332 29.5315L39.5073 25.5959L37.8748 24.5812ZM13.273 25.3842C13.0058 25.3837 12.7394 25.4133 12.4788 25.4724C6.1695 26.9284 2.4457 27.0519 1.34268 27.0519H0.998535V36.5379C0.998535 36.5379 2.02214 36.3879 3.72521 36.3791C7.01663 36.3791 12.8141 36.9438 18.4616 40.2441C18.7616 40.4294 19.4058 40.5 20.2088 40.5C22.353 40.5 25.6092 39.9882 26.3592 39.7058C33.9127 36.8733 43.0016 29.0991 43.0016 29.0991L40.1338 26.5931C40.1338 26.5931 33.0921 31.0846 32.2008 31.517C24.162 35.4614 17.6498 32.9994 17.6498 32.9994C17.6498 32.9994 28.23 33.2642 31.6273 30.5904L29.633 27.5902C29.633 27.5902 22.3266 27.3873 19.7234 27.0431C18.3645 26.8666 15.4261 25.3842 13.273 25.3842Z" fill="#A8766D"/>
<defs>
<clipPath id="clip0_413_5765">
<rect width="22.5899" height="22.5899" fill="white" transform="translate(11.1641 0.5)"/>
</clipPath>
</defs>
</svg>
