<svg width="15" height="16" viewBox="0 0 15 16" fill="none" xmlns="http://www.w3.org/2000/svg">
<path d="M4.6875 8.625C4.13124 8.625 3.58747 8.46005 3.12496 8.15101C2.66245 7.84197 2.30196 7.40272 2.08909 6.8888C1.87622 6.37488 1.82052 5.80938 1.92904 5.26381C2.03756 4.71824 2.30543 4.2171 2.69876 3.82376C3.0921 3.43043 3.59324 3.16256 4.13881 3.05404C4.68438 2.94552 5.24988 3.00122 5.7638 3.21409C6.27771 3.42696 6.71697 3.78745 7.02601 4.24996C7.33505 4.71247 7.5 5.25624 7.5 5.8125C7.49917 6.55817 7.20259 7.27306 6.67532 7.80033C6.14806 8.32759 5.43317 8.62417 4.6875 8.625ZM4.6875 4.25C4.37847 4.25 4.07637 4.34164 3.81942 4.51333C3.56247 4.68502 3.3622 4.92905 3.24394 5.21456C3.12568 5.50007 3.09473 5.81423 3.15502 6.11733C3.21531 6.42043 3.36413 6.69884 3.58265 6.91736C3.80117 7.13588 4.07958 7.28469 4.38267 7.34498C4.68577 7.40527 4.99993 7.37432 5.28544 7.25606C5.57095 7.1378 5.81498 6.93753 5.98667 6.68058C6.15836 6.42363 6.25 6.12153 6.25 5.8125C6.25 5.3981 6.08538 5.00067 5.79235 4.70765C5.49933 4.41462 5.1019 4.25 4.6875 4.25ZM9.375 14.875V14.5625C9.375 13.3193 8.88114 12.127 8.00206 11.2479C7.12299 10.3689 5.9307 9.875 4.6875 9.875C3.4443 9.875 2.25201 10.3689 1.37294 11.2479C0.49386 12.127 0 13.3193 0 14.5625L0 14.875C0 15.0408 0.065848 15.1997 0.183058 15.3169C0.300269 15.4342 0.45924 15.5 0.625 15.5C0.79076 15.5 0.949732 15.4342 1.06694 15.3169C1.18415 15.1997 1.25 15.0408 1.25 14.875V14.5625C1.25 13.6508 1.61216 12.7765 2.25682 12.1318C2.90148 11.4872 3.77582 11.125 4.6875 11.125C5.59918 11.125 6.47352 11.4872 7.11818 12.1318C7.76284 12.7765 8.125 13.6508 8.125 14.5625V14.875C8.125 15.0408 8.19085 15.1997 8.30806 15.3169C8.42527 15.4342 8.58424 15.5 8.75 15.5C8.91576 15.5 9.07473 15.4342 9.19194 15.3169C9.30915 15.1997 9.375 15.0408 9.375 14.875ZM15 11.75C15 10.9054 14.7555 10.0789 14.2961 9.37023C13.8366 8.66155 13.1819 8.10099 12.4109 7.75623C11.6399 7.41147 10.7856 7.29724 9.95109 7.42734C9.1166 7.55743 8.3376 7.92629 7.70813 8.48938C7.6461 8.54388 7.5955 8.61012 7.55922 8.68429C7.52295 8.75846 7.50174 8.83908 7.4968 8.9215C7.49186 9.00392 7.50331 9.08649 7.53047 9.16446C7.55763 9.24243 7.59996 9.31425 7.65504 9.37576C7.71011 9.43727 7.77682 9.48726 7.85133 9.52285C7.92583 9.55843 8.00664 9.5789 8.0891 9.58307C8.17156 9.58724 8.25403 9.57503 8.33174 9.54715C8.40946 9.51927 8.48088 9.47627 8.54187 9.42063C8.99153 9.01851 9.54796 8.75514 10.144 8.66229C10.74 8.56944 11.3502 8.65109 11.9009 8.89738C12.4515 9.14366 12.9192 9.54406 13.2473 10.0503C13.5754 10.5564 13.75 11.1468 13.75 11.75C13.75 11.9158 13.8158 12.0747 13.9331 12.1919C14.0503 12.3092 14.2092 12.375 14.375 12.375C14.5408 12.375 14.6997 12.3092 14.8169 12.1919C14.9342 12.0747 15 11.9158 15 11.75ZM10.9375 6.125C10.3812 6.125 9.83747 5.96005 9.37496 5.65101C8.91245 5.34197 8.55196 4.90272 8.33909 4.3888C8.12622 3.87488 8.07052 3.30938 8.17904 2.76381C8.28756 2.21824 8.55543 1.7171 8.94876 1.32376C9.3421 0.930428 9.84324 0.662564 10.3888 0.554043C10.9344 0.445522 11.4999 0.501219 12.0138 0.71409C12.5277 0.926962 12.967 1.28745 13.276 1.74996C13.585 2.21247 13.75 2.75624 13.75 3.3125C13.7492 4.05817 13.4526 4.77306 12.9253 5.30033C12.3981 5.82759 11.6832 6.12417 10.9375 6.125ZM10.9375 1.75C10.6285 1.75 10.3264 1.84164 10.0694 2.01333C9.81247 2.18502 9.6122 2.42905 9.49394 2.71456C9.37568 3.00007 9.34473 3.31423 9.40502 3.61733C9.46531 3.92043 9.61413 4.19884 9.83265 4.41736C10.0512 4.63588 10.3296 4.78469 10.6327 4.84498C10.9358 4.90527 11.2499 4.87432 11.5354 4.75606C11.821 4.6378 12.065 4.43753 12.2367 4.18058C12.4084 3.92363 12.5 3.62153 12.5 3.3125C12.5 2.8981 12.3354 2.50067 12.0424 2.20765C11.7493 1.91462 11.3519 1.75 10.9375 1.75Z" fill="white"/>
</svg>
