<svg width="14" height="15" viewBox="0 0 14 15" fill="none" xmlns="http://www.w3.org/2000/svg">
<path fill-rule="evenodd" clip-rule="evenodd" d="M6.86824 1.60205C4.32912 1.60205 2.15527 3.88235 2.15527 6.84442C2.15527 9.8065 4.32912 12.0868 6.86824 12.0868C9.40736 12.0868 11.5812 9.8065 11.5812 6.84442C11.5812 3.88235 9.40736 1.60205 6.86824 1.60205ZM0.655273 6.84442C0.655273 3.18751 3.37313 0.102051 6.86824 0.102051C10.3633 0.102051 13.0812 3.18751 13.0812 6.84442C13.0812 10.5013 10.3633 13.5868 6.86824 13.5868C3.37313 13.5868 0.655273 10.5013 0.655273 6.84442Z" fill="#0C9EE8"/>
<path fill-rule="evenodd" clip-rule="evenodd" d="M10.162 10.7699C10.4677 10.4904 10.9421 10.5118 11.2216 10.8175L13.3634 13.1607C13.6428 13.4665 13.6215 13.9409 13.3158 14.2203C13.01 14.4998 12.5356 14.4785 12.2562 14.1727L10.1144 11.8295C9.83493 11.5237 9.85623 11.0494 10.162 10.7699Z" fill="#0C9EE8"/>
</svg>
