<svg width="16" height="16" viewBox="0 0 16 16" fill="none" xmlns="http://www.w3.org/2000/svg">
<path d="M10.4244 6.95175C10.0228 6.95175 9.69713 6.62613 9.69713 6.22447V3.1515C9.69713 2.21578 8.93588 1.45453 8.00016 1.45453C7.06445 1.45453 6.3032 2.21578 6.3032 3.1515V6.22447C6.3032 6.62613 5.97757 6.95175 5.57591 6.95175C5.17426 6.95175 4.84863 6.62613 4.84863 6.22447V3.1515C4.84866 1.41372 6.26241 0 8.00016 0C9.73791 0 11.1517 1.41372 11.1517 3.1515V6.22447C11.1517 6.62613 10.826 6.95175 10.4244 6.95175Z" fill="#D0CACA"/>
<path d="M8 0V1.45453C8.93572 1.45453 9.69697 2.21578 9.69697 3.1515V6.22447C9.69697 6.62613 10.0226 6.95175 10.4242 6.95175C10.8259 6.95175 11.1515 6.62613 11.1515 6.22447V3.1515C11.1515 1.41372 9.73775 0 8 0Z" fill="#CEECFA" fill-opacity="0.5"/>
<path d="M8.00007 4.84851C4.9256 4.84851 2.42432 7.34979 2.42432 10.4243C2.42432 13.4987 4.9256 16 8.00007 16C11.0745 16 13.5758 13.4987 13.5758 10.4243C13.5758 7.34979 11.0745 4.84851 8.00007 4.84851Z" fill="#042F46"/>
<path d="M8 4.84851V16C11.0745 16 13.5757 13.4987 13.5757 10.4243C13.5757 7.34979 11.0745 4.84851 8 4.84851Z" fill="#388DCC"/>
<path d="M8.96965 9.69698C8.96965 9.16233 8.53465 8.72729 7.99996 8.72729C7.46527 8.72729 7.03027 9.16236 7.03027 9.69698C7.03027 9.94198 7.1223 10.1654 7.27271 10.3363V11.394C7.27271 11.7956 7.59834 12.1212 7.99999 12.1212C8.40165 12.1212 8.72727 11.7956 8.72727 11.394V10.3363C8.87765 10.1654 8.96965 9.94198 8.96965 9.69698Z" fill="#9B9494"/>
<path d="M8.72725 11.394V10.3363C8.87766 10.1654 8.96969 9.94198 8.96969 9.69698C8.96969 9.16233 8.53469 8.72729 8 8.72729V12.1212C8.40163 12.1212 8.72725 11.7956 8.72725 11.394Z" fill="#D0CACA"/>
</svg>
