<svg width="28" height="28" viewBox="0 0 28 28" fill="none" xmlns="http://www.w3.org/2000/svg">
<path d="M23.3333 11.6667H22.645C22.4038 11.6657 22.1689 11.59 21.9725 11.45C21.7761 11.3101 21.6279 11.1127 21.5483 10.885C21.4445 10.6665 21.4112 10.4211 21.453 10.1828C21.4948 9.94453 21.6097 9.72514 21.7817 9.555L22.26 9.07667C22.3693 8.96821 22.4561 8.83917 22.5154 8.69701C22.5746 8.55484 22.6051 8.40235 22.6051 8.24833C22.6051 8.09432 22.5746 7.94183 22.5154 7.79966C22.4561 7.65749 22.3693 7.52846 22.26 7.42L20.6033 5.75167C20.4949 5.64232 20.3658 5.55552 20.2237 5.49629C20.0815 5.43706 19.929 5.40657 19.775 5.40657C19.621 5.40657 19.4685 5.43706 19.3263 5.49629C19.1842 5.55552 19.0551 5.64232 18.9467 5.75167L18.4683 6.23C18.2982 6.40199 18.0788 6.51683 17.8405 6.55864C17.6022 6.60044 17.3569 6.56714 17.1383 6.46333C16.9044 6.38707 16.7006 6.23881 16.556 6.03975C16.4115 5.84069 16.3335 5.60102 16.3333 5.355V4.66667C16.3333 4.35725 16.2104 4.0605 15.9916 3.84171C15.7728 3.62292 15.4761 3.5 15.1667 3.5H12.8333C12.5239 3.5 12.2272 3.62292 12.0084 3.84171C11.7896 4.0605 11.6667 4.35725 11.6667 4.66667V5.355C11.6657 5.59617 11.59 5.83112 11.45 6.02751C11.3101 6.2239 11.1127 6.37208 10.885 6.45167C10.6665 6.55547 10.4211 6.58877 10.1828 6.54697C9.94453 6.50517 9.72514 6.39032 9.555 6.21833L9.07667 5.74C8.96821 5.63065 8.83917 5.54386 8.69701 5.48463C8.55484 5.4254 8.40235 5.3949 8.24833 5.3949C8.09432 5.3949 7.94183 5.4254 7.79966 5.48463C7.65749 5.54386 7.52846 5.63065 7.42 5.74L5.75167 7.39667C5.64232 7.50512 5.55552 7.63416 5.49629 7.77633C5.43706 7.9185 5.40657 8.07099 5.40657 8.225C5.40657 8.37901 5.43706 8.5315 5.49629 8.67367C5.55552 8.81584 5.64232 8.94488 5.75167 9.05333L6.23 9.53167C6.40199 9.7018 6.51683 9.9212 6.55864 10.1595C6.60044 10.3978 6.56714 10.6431 6.46333 10.8617C6.38375 11.0893 6.23556 11.2867 6.03917 11.4267C5.84278 11.5667 5.60784 11.6424 5.36667 11.6433H4.66667C4.35725 11.6433 4.0605 11.7662 3.84171 11.985C3.62292 12.2038 3.5 12.5006 3.5 12.81V15.1433C3.5 15.4528 3.62292 15.7495 3.84171 15.9683C4.0605 16.1871 4.35725 16.31 4.66667 16.31H5.355C5.59617 16.311 5.83112 16.3866 6.02751 16.5266C6.2239 16.6666 6.37208 16.864 6.45167 17.0917C6.55547 17.3102 6.58877 17.5556 6.54697 17.7939C6.50517 18.0321 6.39032 18.2515 6.21833 18.4217L5.74 18.9C5.63065 19.0085 5.54386 19.1375 5.48463 19.2797C5.4254 19.4218 5.3949 19.5743 5.3949 19.7283C5.3949 19.8823 5.4254 20.0348 5.48463 20.177C5.54386 20.3192 5.63065 20.4482 5.74 20.5567L7.385 22.2017C7.49346 22.311 7.62249 22.3978 7.76466 22.457C7.90683 22.5163 8.05932 22.5468 8.21333 22.5468C8.36735 22.5468 8.51984 22.5163 8.66201 22.457C8.80418 22.3978 8.93321 22.311 9.04167 22.2017L9.52 21.7233C9.69014 21.5513 9.90953 21.4365 10.1478 21.3947C10.3861 21.3529 10.6315 21.3862 10.85 21.49C11.0777 21.5696 11.2751 21.7178 11.415 21.9142C11.555 22.1105 11.6307 22.3455 11.6317 22.5867V23.3333C11.6317 23.6428 11.7546 23.9395 11.9734 24.1583C12.1922 24.3771 12.4889 24.5 12.7983 24.5H15.1317C15.4411 24.5 15.7378 24.3771 15.9566 24.1583C16.1754 23.9395 16.2983 23.6428 16.2983 23.3333V22.645C16.2993 22.4038 16.375 22.1689 16.515 21.9725C16.6549 21.7761 16.8523 21.6279 17.08 21.5483C17.2985 21.4445 17.5439 21.4112 17.7822 21.453C18.0205 21.4948 18.2399 21.6097 18.41 21.7817L18.8883 22.26C18.9968 22.3693 19.1258 22.4561 19.268 22.5154C19.4102 22.5746 19.5627 22.6051 19.7167 22.6051C19.8707 22.6051 20.0232 22.5746 20.1653 22.5154C20.3075 22.4561 20.4365 22.3693 20.545 22.26L22.19 20.615C22.2993 20.5065 22.3861 20.3775 22.4454 20.2353C22.5046 20.0932 22.5351 19.9407 22.5351 19.7867C22.5351 19.6327 22.5046 19.4802 22.4454 19.338C22.3861 19.1958 22.2993 19.0668 22.19 18.9583L21.7117 18.48C21.5397 18.3099 21.4248 18.0905 21.383 17.8522C21.3412 17.6139 21.3745 17.3685 21.4783 17.15C21.5579 16.9223 21.7061 16.7249 21.9025 16.585C22.0989 16.445 22.3338 16.3693 22.575 16.3683H23.3333C23.6428 16.3683 23.9395 16.2454 24.1583 16.0266C24.3771 15.8078 24.5 15.5111 24.5 15.2017V12.8333C24.5 12.5239 24.3771 12.2272 24.1583 12.0084C23.9395 11.7896 23.6428 11.6667 23.3333 11.6667ZM14 17.5C13.3078 17.5 12.6311 17.2947 12.0555 16.9101C11.4799 16.5256 11.0313 15.9789 10.7664 15.3394C10.5015 14.6999 10.4322 13.9961 10.5673 13.3172C10.7023 12.6383 11.0356 12.0146 11.5251 11.5251C12.0146 11.0356 12.6383 10.7023 13.3172 10.5673C13.9961 10.4322 14.6999 10.5015 15.3394 10.7664C15.9789 11.0313 16.5256 11.4799 16.9101 12.0555C17.2947 12.6311 17.5 13.3078 17.5 14C17.5 14.9283 17.1313 15.8185 16.4749 16.4749C15.8185 17.1313 14.9283 17.5 14 17.5Z" fill="#D0CACA"/>
<path d="M17.5 14C17.5 14.6922 17.2947 15.3689 16.9101 15.9445C16.5256 16.5201 15.9789 16.9687 15.3394 17.2336C14.6999 17.4985 13.9961 17.5678 13.3172 17.4327C12.6383 17.2977 12.0146 16.9644 11.5251 16.4749C11.0356 15.9854 10.7023 15.3617 10.5673 14.6828C10.4322 14.0039 10.5015 13.3001 10.7664 12.6606C11.0313 12.0211 11.4799 11.4744 12.0555 11.0899C12.6311 10.7053 13.3078 10.5 14 10.5C14.9283 10.5 15.8185 10.8687 16.4749 11.5251C17.1313 12.1815 17.5 13.0717 17.5 14ZM23.3333 11.6667H22.645C22.4038 11.6657 22.1689 11.59 21.9725 11.45C21.7761 11.3101 21.6279 11.1127 21.5483 10.885C21.4445 10.6665 21.4112 10.4211 21.453 10.1828C21.4948 9.94453 21.6097 9.72514 21.7817 9.555L22.26 9.07667C22.3693 8.96821 22.4561 8.83917 22.5154 8.69701C22.5746 8.55484 22.6051 8.40235 22.6051 8.24833C22.6051 8.09432 22.5746 7.94183 22.5154 7.79966C22.4561 7.65749 22.3693 7.52846 22.26 7.42L20.6033 5.75167C20.4949 5.64232 20.3658 5.55552 20.2237 5.49629C20.0815 5.43706 19.929 5.40657 19.775 5.40657C19.621 5.40657 19.4685 5.43706 19.3263 5.49629C19.1842 5.55552 19.0551 5.64232 18.9467 5.75167L18.4683 6.23C18.2982 6.40199 18.0788 6.51683 17.8405 6.55864C17.6022 6.60044 17.3569 6.56714 17.1383 6.46333C16.9044 6.38707 16.7006 6.23881 16.556 6.03975C16.4115 5.84069 16.3335 5.60102 16.3333 5.355V4.66667C16.3333 4.35725 16.2104 4.0605 15.9916 3.84171C15.7728 3.62292 15.4761 3.5 15.1667 3.5H12.8333C12.5239 3.5 12.2272 3.62292 12.0084 3.84171C11.7896 4.0605 11.6667 4.35725 11.6667 4.66667V5.355C11.6657 5.59617 11.59 5.83112 11.45 6.02751C11.3101 6.2239 11.1127 6.37208 10.885 6.45167V6.45167C10.6665 6.55547 10.4211 6.58877 10.1828 6.54697C9.94453 6.50517 9.72514 6.39032 9.555 6.21833L9.07667 5.74C8.96821 5.63065 8.83917 5.54386 8.69701 5.48463C8.55484 5.4254 8.40235 5.3949 8.24833 5.3949C8.09432 5.3949 7.94183 5.4254 7.79966 5.48463C7.65749 5.54386 7.52846 5.63065 7.42 5.74L5.75167 7.39667C5.64232 7.50512 5.55552 7.63416 5.49629 7.77633C5.43706 7.9185 5.40657 8.07099 5.40657 8.225C5.40657 8.37901 5.43706 8.5315 5.49629 8.67367C5.55552 8.81584 5.64232 8.94488 5.75167 9.05333L6.23 9.53167C6.40199 9.7018 6.51683 9.9212 6.55864 10.1595C6.60044 10.3978 6.56714 10.6431 6.46333 10.8617C6.38375 11.0893 6.23556 11.2867 6.03917 11.4267C5.84278 11.5667 5.60784 11.6424 5.36667 11.6433H4.66667C4.35725 11.6433 4.0605 11.7662 3.84171 11.985C3.62292 12.2038 3.5 12.5006 3.5 12.81V15.1433C3.5 15.4528 3.62292 15.7495 3.84171 15.9683C4.0605 16.1871 4.35725 16.31 4.66667 16.31H5.355C5.59617 16.311 5.83112 16.3866 6.02751 16.5266C6.2239 16.6666 6.37208 16.864 6.45167 17.0917V17.0917C6.55547 17.3102 6.58877 17.5556 6.54697 17.7939C6.50517 18.0321 6.39032 18.2515 6.21833 18.4217L5.74 18.9C5.63065 19.0085 5.54386 19.1375 5.48463 19.2797C5.4254 19.4218 5.3949 19.5743 5.3949 19.7283C5.3949 19.8823 5.4254 20.0348 5.48463 20.177C5.54386 20.3192 5.63065 20.4482 5.74 20.5567L7.385 22.2017C7.49346 22.311 7.62249 22.3978 7.76466 22.457C7.90683 22.5163 8.05932 22.5468 8.21333 22.5468C8.36735 22.5468 8.51984 22.5163 8.66201 22.457C8.80418 22.3978 8.93321 22.311 9.04167 22.2017L9.52 21.7233C9.69014 21.5513 9.90953 21.4365 10.1478 21.3947C10.3861 21.3529 10.6315 21.3862 10.85 21.49C11.0777 21.5696 11.2751 21.7178 11.415 21.9142C11.555 22.1106 11.6307 22.3455 11.6317 22.5867V23.3333C11.6317 23.6428 11.7546 23.9395 11.9734 24.1583C12.1922 24.3771 12.4889 24.5 12.7983 24.5H15.1317C15.4411 24.5 15.7378 24.3771 15.9566 24.1583C16.1754 23.9395 16.2983 23.6428 16.2983 23.3333V22.645C16.2993 22.4038 16.375 22.1689 16.515 21.9725C16.6549 21.7761 16.8523 21.6279 17.08 21.5483C17.2985 21.4445 17.5439 21.4112 17.7822 21.453C18.0205 21.4948 18.2399 21.6097 18.41 21.7817L18.8883 22.26C18.9968 22.3693 19.1258 22.4561 19.268 22.5154C19.4102 22.5746 19.5627 22.6051 19.7167 22.6051C19.8707 22.6051 20.0232 22.5746 20.1653 22.5154C20.3075 22.4561 20.4365 22.3693 20.545 22.26L22.19 20.615C22.2993 20.5065 22.3861 20.3775 22.4454 20.2353C22.5046 20.0932 22.5351 19.9407 22.5351 19.7867C22.5351 19.6327 22.5046 19.4802 22.4454 19.338C22.3861 19.1958 22.2993 19.0668 22.19 18.9583L21.7117 18.48C21.5397 18.3099 21.4248 18.0905 21.383 17.8522C21.3412 17.6139 21.3745 17.3685 21.4783 17.15V17.15C21.5579 16.9223 21.7061 16.7249 21.9025 16.585C22.0989 16.445 22.3338 16.3693 22.575 16.3683H23.3333C23.6428 16.3683 23.9395 16.2454 24.1583 16.0266C24.3771 15.8078 24.5 15.5111 24.5 15.2017V12.8333C24.5 12.5239 24.3771 12.2272 24.1583 12.0084C23.9395 11.7896 23.6428 11.6667 23.3333 11.6667Z" stroke="#08699B" stroke-width="2" stroke-linecap="round" stroke-linejoin="round"/>
</svg>
