<svg width="34" height="34" viewBox="0 0 34 34" fill="none" xmlns="http://www.w3.org/2000/svg">
<rect width="34" height="34" rx="4" fill="#CEECFA" fill-opacity="0.3"/>
<path fill-rule="evenodd" clip-rule="evenodd" d="M20.8357 21.2811L14.0254 17.3491L13.2754 18.6482L20.0857 22.5801L20.8357 21.2811Z" fill="#042F46"/>
<path fill-rule="evenodd" clip-rule="evenodd" d="M20.8357 13.0158L14.0254 16.9478L13.2754 15.6487L20.0857 11.7168L20.8357 13.0158Z" fill="#042F46"/>
<path fill-rule="evenodd" clip-rule="evenodd" d="M11.15 18.7942C12.0613 18.7942 12.8 18.0554 12.8 17.1442C12.8 16.2329 12.0613 15.4942 11.15 15.4942C10.2387 15.4942 9.5 16.2329 9.5 17.1442C9.5 18.0554 10.2387 18.7942 11.15 18.7942ZM11.15 20.2942C12.8897 20.2942 14.3 18.8838 14.3 17.1442C14.3 15.4045 12.8897 13.9941 11.15 13.9941C9.4103 13.9941 8 15.4045 8 17.1442C8 18.8838 9.4103 20.2942 11.15 20.2942Z" fill="#388DCC"/>
<path fill-rule="evenodd" clip-rule="evenodd" d="M22.8502 21.4961C23.7614 21.4961 24.5002 22.2348 24.5002 23.1461C24.5002 24.0574 23.7614 24.7961 22.8502 24.7961C21.9389 24.7961 21.2002 24.0574 21.2002 23.1461C21.2002 22.2348 21.9389 21.4961 22.8502 21.4961ZM22.8502 19.9961C24.5898 19.9961 26.0002 21.4064 26.0002 23.1461C26.0002 24.8858 24.5898 26.2961 22.8502 26.2961C21.1105 26.2961 19.7002 24.8858 19.7002 23.1461C19.7002 21.4064 21.1105 19.9961 22.8502 19.9961Z" fill="#388DCC"/>
<path fill-rule="evenodd" clip-rule="evenodd" d="M22.8502 12.8C23.7614 12.8 24.5002 12.0613 24.5002 11.15C24.5002 10.2387 23.7614 9.5 22.8502 9.5C21.9389 9.5 21.2002 10.2387 21.2002 11.15C21.2002 12.0613 21.9389 12.8 22.8502 12.8ZM22.8502 14.3C24.5898 14.3 26.0002 12.8897 26.0002 11.15C26.0002 9.4103 24.5898 8 22.8502 8C21.1105 8 19.7002 9.4103 19.7002 11.15C19.7002 12.8897 21.1105 14.3 22.8502 14.3Z" fill="#388DCC"/>
<rect x="0.5" y="0.5" width="33" height="33" rx="3.5" stroke="#CEECFA" stroke-opacity="0.5"/>
</svg>
