<svg width="15" height="16" viewBox="0 0 15 16" fill="none" xmlns="http://www.w3.org/2000/svg">
<g clip-path="url(#clip0_413_9208)">
<path d="M0.732813 9.76737L3.15719 12.1917C3.27506 12.3056 3.43294 12.3686 3.59681 12.3672C3.76069 12.3657 3.91744 12.3 4.03332 12.1841C4.1492 12.0682 4.21494 11.9115 4.21636 11.7476C4.21778 11.5837 4.15479 11.4259 4.04094 11.308L1.61656 8.88362C1.54453 8.81016 1.48158 8.72833 1.42906 8.63987C1.43844 8.63987 1.44594 8.64487 1.45531 8.64487L11.2578 8.62487C11.4236 8.62487 11.5825 8.55902 11.6998 8.44181C11.817 8.3246 11.8828 8.16563 11.8828 7.99987C11.8828 7.83411 11.817 7.67514 11.6998 7.55793C11.5825 7.44072 11.4236 7.37487 11.2578 7.37487L1.45906 7.39487C1.44156 7.39487 1.42719 7.40362 1.41031 7.40487C1.46575 7.29914 1.53605 7.20191 1.61906 7.11612L4.04344 4.69174C4.10313 4.63409 4.15074 4.56512 4.1835 4.48887C4.21626 4.41262 4.2335 4.33061 4.23422 4.24762C4.23494 4.16463 4.21913 4.08233 4.1877 4.00552C4.15628 3.92871 4.10987 3.85893 4.05118 3.80025C3.9925 3.74156 3.92272 3.69515 3.84591 3.66373C3.7691 3.6323 3.6868 3.61649 3.60381 3.61721C3.52082 3.61793 3.43881 3.63517 3.36256 3.66793C3.28631 3.70069 3.21734 3.7483 3.15969 3.80799L0.735312 6.23237C0.266635 6.70119 0.0033474 7.33696 0.0033474 7.99987C0.0033474 8.66278 0.266635 9.29855 0.735312 9.76737H0.732813Z" fill="white"/>
<path d="M10.625 1.75H11.875C12.3723 1.75 12.8492 1.94754 13.2008 2.29917C13.5525 2.65081 13.75 3.12772 13.75 3.625V12.375C13.75 12.8723 13.5525 13.3492 13.2008 13.7008C12.8492 14.0525 12.3723 14.25 11.875 14.25H10.625C10.4592 14.25 10.3003 14.3158 10.1831 14.4331C10.0658 14.5503 10 14.7092 10 14.875C10 15.0408 10.0658 15.1997 10.1831 15.3169C10.3003 15.4342 10.4592 15.5 10.625 15.5H11.875C12.7035 15.499 13.4978 15.1694 14.0836 14.5836C14.6694 13.9978 14.999 13.2035 15 12.375L15 3.625C14.999 2.7965 14.6694 2.00222 14.0836 1.41639C13.4978 0.83055 12.7035 0.500993 11.875 0.5H10.625C10.4592 0.5 10.3003 0.565847 10.1831 0.683058C10.0658 0.800268 10 0.95924 10 1.125C10 1.29076 10.0658 1.44973 10.1831 1.56694C10.3003 1.68415 10.4592 1.75 10.625 1.75Z" fill="white"/>
</g>
<defs>
<clipPath id="clip0_413_9208">
<rect width="15" height="15" fill="white" transform="matrix(-1 0 0 -1 15 15.5)"/>
</clipPath>
</defs>
</svg>
