<svg width="95" height="37" viewBox="0 0 95 37" fill="none" xmlns="http://www.w3.org/2000/svg">
<g clip-path="url(#clip0_413_11964)">
<path d="M27 14.75L24.5 11H25.75V8.5H28.25V11H29.5L27 14.75Z" fill="#042F46"/>
<path d="M35.75 17.25V27.25H18.25V17.25H35.75ZM37 16H17V28.5H37V16Z" fill="#042F46"/>
<path d="M27 18.5C29.0712 18.5 30.75 20.1788 30.75 22.25C30.75 24.3212 29.0712 26 27 26H33.25V24.75H34.5V19.75H33.25V18.5H27Z" fill="#042F46"/>
<path d="M23.25 22.25C23.25 20.1788 24.9288 18.5 27 18.5H20.75V19.75H19.5V24.75H20.75V26H27C24.9288 26 23.25 24.3212 23.25 22.25Z" fill="#042F46"/>
</g>
<path d="M49.9854 18.1426L49.9609 18.8311C49.3164 18.7985 48.6507 18.7822 47.9639 18.7822C47.9574 19.4072 47.9541 20.1999 47.9541 21.1602C47.9541 22.2214 47.9704 23.3346 48.0029 24.5H47.1094C47.1484 23.39 47.168 22.2767 47.168 21.1602C47.168 20.2129 47.1582 19.4202 47.1387 18.7822C46.6569 18.7822 45.9798 18.8018 45.1074 18.8408L45.1318 18.1426H49.9854ZM56.5527 21.2236C56.5527 22.2751 56.2451 23.1165 55.6299 23.748C55.0146 24.3763 54.3034 24.6904 53.4961 24.6904C52.7214 24.6904 52.041 24.4023 51.4551 23.8262C50.8724 23.2467 50.5811 22.4655 50.5811 21.4824C50.5811 20.418 50.8887 19.5749 51.5039 18.9531C52.1191 18.3281 52.8304 18.0156 53.6377 18.0156C54.4124 18.0156 55.0911 18.3053 55.6738 18.8848C56.2598 19.4609 56.5527 20.2406 56.5527 21.2236ZM55.6836 21.3359C55.6836 20.4961 55.4622 19.8467 55.0195 19.3877C54.5801 18.9255 54.0723 18.6943 53.4961 18.6943C52.9622 18.6943 52.487 18.9368 52.0703 19.4219C51.6536 19.9069 51.4453 20.5547 51.4453 21.3652C51.4453 22.2083 51.6667 22.861 52.1094 23.3232C52.5553 23.7822 53.0648 24.0117 53.6377 24.0117C54.1715 24.0117 54.6452 23.766 55.0586 23.2744C55.4753 22.7829 55.6836 22.1367 55.6836 21.3359ZM62.2461 19.7197C62.2461 20.4619 61.9645 21.0169 61.4014 21.3848C60.8382 21.7526 60.0814 21.9365 59.1309 21.9365C59.0104 21.9365 58.9062 21.9333 58.8184 21.9268C58.8184 22.6364 58.8444 23.4941 58.8965 24.5H57.959C58.0078 23.5755 58.0322 22.4622 58.0322 21.1602C58.0322 20.0404 58.0078 19.0345 57.959 18.1426H58.6572C58.7321 18.1426 58.9453 18.1377 59.2969 18.1279C59.6517 18.1182 59.9528 18.1133 60.2002 18.1133C60.8252 18.1133 61.3216 18.2565 61.6895 18.543C62.0605 18.8262 62.2461 19.2184 62.2461 19.7197ZM61.4307 20.0029C61.4307 19.1663 60.8594 18.748 59.7168 18.748C59.4368 18.748 59.1227 18.7725 58.7744 18.8213C58.7972 19.3519 58.8086 20.1787 58.8086 21.3018C58.9225 21.3083 59.0625 21.3115 59.2285 21.3115C60.6966 21.3115 61.4307 20.8753 61.4307 20.0029ZM64.9072 21.6631L64.8486 22.293L62.7588 22.3613L62.8027 21.7363L64.9072 21.6631ZM71.1035 18.1426C71.0905 18.7578 71.0807 19.3324 71.0742 19.8662C71.0677 20.4001 71.0645 20.8981 71.0645 21.3604C71.0645 23.5413 70.2035 24.6318 68.4814 24.6318C68.0322 24.6318 67.6465 24.5684 67.3242 24.4414C67.0052 24.3112 66.7415 24.1143 66.5332 23.8506C66.3281 23.5837 66.1768 23.2484 66.0791 22.8447C65.9847 22.4411 65.9375 21.9642 65.9375 21.4141C65.9375 20.9323 65.9342 20.4212 65.9277 19.8809C65.9212 19.3372 65.9115 18.7578 65.8984 18.1426H66.8262C66.7871 19.3828 66.7676 20.3545 66.7676 21.0576C66.7676 21.624 66.7952 22.0863 66.8506 22.4443C66.9059 22.7992 67.0036 23.0954 67.1436 23.333C67.2868 23.5706 67.4658 23.7399 67.6807 23.8408C67.8955 23.9385 68.1689 23.9873 68.501 23.9873C68.8493 23.9873 69.1325 23.9385 69.3506 23.8408C69.5687 23.7399 69.7461 23.5755 69.8828 23.3477C70.0195 23.1165 70.1172 22.8219 70.1758 22.4639C70.2344 22.1025 70.2637 21.6305 70.2637 21.0479C70.2637 20.7028 70.2572 20.291 70.2441 19.8125C70.2344 19.3307 70.2181 18.7741 70.1953 18.1426H71.1035ZM77.1191 19.7197C77.1191 20.4619 76.8376 21.0169 76.2744 21.3848C75.7113 21.7526 74.9544 21.9365 74.0039 21.9365C73.8835 21.9365 73.7793 21.9333 73.6914 21.9268C73.6914 22.6364 73.7174 23.4941 73.7695 24.5H72.832C72.8809 23.5755 72.9053 22.4622 72.9053 21.1602C72.9053 20.0404 72.8809 19.0345 72.832 18.1426H73.5303C73.6051 18.1426 73.8184 18.1377 74.1699 18.1279C74.5247 18.1182 74.8258 18.1133 75.0732 18.1133C75.6982 18.1133 76.1947 18.2565 76.5625 18.543C76.9336 18.8262 77.1191 19.2184 77.1191 19.7197ZM76.3037 20.0029C76.3037 19.1663 75.7324 18.748 74.5898 18.748C74.3099 18.748 73.9958 18.7725 73.6475 18.8213C73.6702 19.3519 73.6816 20.1787 73.6816 21.3018C73.7956 21.3083 73.9355 21.3115 74.1016 21.3115C75.5697 21.3115 76.3037 20.8753 76.3037 20.0029Z" fill="#042F46"/>
<defs>
<clipPath id="clip0_413_11964">
<rect width="20" height="20" fill="white" transform="translate(17 8.5)"/>
</clipPath>
</defs>
</svg>
