<svg width="38" height="41" viewBox="0 0 38 41" fill="none" xmlns="http://www.w3.org/2000/svg">
<path d="M10.3368 7.84697V3.84864H11.6696V1.18311H3.6729V3.84864H5.0057V12.5117L1.2739 15.7103C0.740757 16.2435 1.07398 17.1764 1.80703 17.1764H5.0057V37.1681H3.6729V39.8336H34.3268V37.1681H32.994V17.1764H36.1926C36.9257 17.1764 37.2588 16.2434 36.7258 15.777L21.3989 2.18269C20.0661 0.916576 17.9337 0.916576 16.6009 2.18269L10.3368 7.84697Z" fill="#08699B"/>
<path d="M10.3368 7.84697V3.84864H11.6696V1.18311H3.6729V3.84864H5.0057V12.5117L1.2739 15.7103C0.740757 16.2435 1.07398 17.1764 1.80703 17.1764H5.0057V37.1681H3.6729V39.8336H32.3276V37.1681H30.9948V17.1764H34.1935C34.9265 17.1764 35.2597 16.2434 34.7266 15.777L19.3997 2.18269C18.0669 0.916576 17.6671 0.916576 16.3343 2.18269L10.3368 7.84697Z" fill="#5DBEF0"/>
<path d="M22.9984 19.8418H10.3369V23.8401H22.0654C22.5985 23.8401 22.9984 24.24 22.9984 24.7731V28.5049H26.9967V23.8401C26.9967 21.641 25.1974 19.8418 22.9984 19.8418Z" fill="#08699B"/>
<path d="M26.33 35.1687C25.597 35.9018 24.3975 35.9018 23.6645 35.1687C22.9315 34.4357 22.9315 33.2362 23.6645 32.5032L24.9973 31.1704L26.3301 32.5032C27.0631 33.2362 27.0631 34.4357 26.33 35.1687Z" fill="#08699B"/>
<path d="M34.327 40.5H3.67311C3.27328 40.5 3.00675 40.2335 3.00675 39.8337V37.1681C3.00675 36.7683 3.27328 36.5018 3.67311 36.5018H4.33947V17.8428H1.80725C1.2075 17.8428 0.607746 17.443 0.407829 16.9098C0.207912 16.3101 0.341216 15.7103 0.807662 15.2439L4.33955 12.1785V4.51499H3.67311C3.27328 4.51499 3.00675 4.24846 3.00675 3.84863V1.18309C3.00675 0.783261 3.27328 0.516731 3.67311 0.516731H11.6698C12.0696 0.516731 12.3361 0.783261 12.3361 1.18309V3.84863C12.3361 4.24846 12.0696 4.51499 11.6698 4.51499H11.0034V6.31424L16.1346 1.64954C17.734 0.11682 20.2663 0.11682 21.8656 1.64954L37.1925 15.2439C37.659 15.6437 37.7923 16.3101 37.5924 16.8432C37.3924 17.443 36.8593 17.7762 36.1929 17.7762H33.6606V36.4351H34.327C34.5269 36.4351 34.6602 36.5017 34.7934 36.635C34.9268 36.7683 34.9934 36.9015 34.9934 37.1014V39.767C34.9934 40.2335 34.6602 40.5 34.327 40.5ZM4.33947 39.1673H33.6606V37.8345H32.9943C32.5944 37.8345 32.3279 37.568 32.3279 37.1681V17.1764C32.3279 16.7766 32.5944 16.5101 32.9943 16.5101H36.1929C36.1929 16.5101 36.2596 16.5101 36.3262 16.4435C36.3929 16.3769 36.3262 16.3102 36.2596 16.3102L20.9326 2.71574C19.7997 1.64954 18.1337 1.64954 17.0675 2.71574L10.8035 8.44671C10.6036 8.64663 10.3371 8.64663 10.0704 8.58002C9.80392 8.3801 9.67062 8.11357 9.67062 7.84696V3.84863C9.67062 3.44879 9.93715 3.18226 10.337 3.18226H11.0033V1.84946H4.33947V3.18226H5.00584C5.40567 3.18226 5.6722 3.44879 5.6722 3.84863V12.5117C5.6722 12.7116 5.60559 12.9115 5.47228 13.0448L1.74056 16.2435C1.67394 16.3101 1.67394 16.3768 1.67394 16.4434C1.67394 16.51 1.74056 16.51 1.80725 16.51H5.00592C5.40575 16.51 5.67228 16.7765 5.67228 17.1764V37.168C5.67228 37.5679 5.40575 37.8344 5.00592 37.8344H4.33955V39.1673H4.33947Z" fill="black"/>
<path d="M26.9966 29.1715H22.9982C22.5984 29.1715 22.3319 28.905 22.3319 28.5052V24.7734C22.3319 24.6401 22.1986 24.5068 22.0653 24.5068H10.3368C9.93694 24.5068 9.67041 24.2403 9.67041 23.8405V19.8421C9.67041 19.4423 9.93694 19.1758 10.3368 19.1758H22.9981C25.5971 19.1758 27.6628 21.2416 27.6628 23.8405V28.5052C27.6629 28.9049 27.3964 29.1715 26.9966 29.1715ZM23.6646 27.8387H26.3301V23.8404C26.3301 21.9745 24.8641 20.5084 22.9981 20.5084H11.0031V23.174H22.0653C22.9315 23.174 23.6646 23.907 23.6646 24.7733V27.8387Z" fill="black"/>
<path d="M24.9977 36.3687C24.3313 36.3687 23.6649 36.1021 23.1984 35.6356C22.1988 34.636 22.1988 33.0367 23.1984 32.0371L24.5312 30.7043C24.7978 30.4378 25.1976 30.4378 25.4642 30.7043L26.797 32.0371C27.7966 33.0367 27.7966 34.636 26.797 35.6356C26.3304 36.1687 25.664 36.3687 24.9977 36.3687ZM24.9977 32.1037L24.1314 32.97C23.6649 33.4364 23.6649 34.2361 24.1314 34.7026C24.5978 35.1691 25.3975 35.1691 25.864 34.7026C26.3305 34.2362 26.3305 33.4365 25.864 32.97L24.9977 32.1037Z" fill="black"/>
<path d="M19.6664 20.5083C19.2665 20.5083 19 20.2418 19 19.8419V15.8436C19 15.4438 19.2665 15.1772 19.6664 15.1772C20.0662 15.1772 20.3327 15.4438 20.3327 15.8436V19.8419C20.3327 20.2418 20.0662 20.5083 19.6664 20.5083Z" fill="black"/>
<path d="M17.0008 16.51C16.601 16.51 16.3345 16.2434 16.3345 15.8436C16.3345 15.4438 16.601 15.1772 17.0008 15.1772H22.332C22.7318 15.1772 22.9983 15.4438 22.9983 15.8436C22.9983 16.2434 22.7318 16.51 22.332 16.51H17.0008Z" fill="black"/>
</svg>
