<svg width="15" height="12" viewBox="0 0 15 12" fill="none" xmlns="http://www.w3.org/2000/svg">
<path d="M11.875 0.375H3.125C2.2965 0.375992 1.50222 0.705551 0.916387 1.29139C0.330551 1.87722 0.000992411 2.6715 0 3.5L0 8.5C0.000992411 9.3285 0.330551 10.1228 0.916387 10.7086C1.50222 11.2944 2.2965 11.624 3.125 11.625H11.875C12.7035 11.624 13.4978 11.2944 14.0836 10.7086C14.6694 10.1228 14.999 9.3285 15 8.5V3.5C14.999 2.6715 14.6694 1.87722 14.0836 1.29139C13.4978 0.705551 12.7035 0.375992 11.875 0.375ZM3.125 1.625H11.875C12.3723 1.625 12.8492 1.82254 13.2008 2.17417C13.5525 2.52581 13.75 3.00272 13.75 3.5H1.25C1.25 3.00272 1.44754 2.52581 1.79917 2.17417C2.15081 1.82254 2.62772 1.625 3.125 1.625ZM11.875 10.375H3.125C2.62772 10.375 2.15081 10.1775 1.79917 9.82583C1.44754 9.47419 1.25 8.99728 1.25 8.5V4.75H13.75V8.5C13.75 8.99728 13.5525 9.47419 13.2008 9.82583C12.8492 10.1775 12.3723 10.375 11.875 10.375Z" fill="white"/>
</svg>
