<svg width="95" height="37" viewBox="0 0 95 37" fill="none" xmlns="http://www.w3.org/2000/svg">
<g clip-path="url(#clip0_424_3846)">
<path d="M18 8.5L20.5 12.25H19.25V14.75H16.75V12.25H15.5L18 8.5Z" fill="#042F46"/>
<path d="M26.75 17.25V27.25H9.25V17.25H26.75ZM28 16H8V28.5H28V16Z" fill="#042F46"/>
<path d="M18 18.5C20.0712 18.5 21.75 20.1788 21.75 22.25C21.75 24.3212 20.0712 26 18 26H24.25V24.75H25.5V19.75H24.25V18.5H18Z" fill="#042F46"/>
<path d="M14.25 22.25C14.25 20.1788 15.9288 18.5 18 18.5H11.75V19.75H10.5V24.75H11.75V26H18C15.9288 26 14.25 24.3212 14.25 22.25Z" fill="#042F46"/>
</g>
<path d="M44.8086 18.1426C44.8086 18.3802 44.457 19.4447 43.7539 21.3359C43.0508 23.2272 42.6992 24.2819 42.6992 24.5H42.0645C42.0645 24.2135 41.8089 23.3835 41.2979 22.0098C40.7412 20.5221 40.4255 19.5635 40.3506 19.1338H40.2871C40.222 19.5895 39.9421 20.5661 39.4473 22.0635C38.985 23.4665 38.7539 24.2786 38.7539 24.5H38.1191C38.1191 24.168 37.7741 23.0563 37.084 21.165C36.3971 19.2705 36.0537 18.263 36.0537 18.1426H36.9814C36.9814 18.276 37.2272 19.1191 37.7188 20.6719C38.2135 22.2246 38.4609 23.1751 38.4609 23.5234H38.5146C38.5146 23.1556 38.7653 22.2116 39.2666 20.6914C39.7679 19.168 40.0186 18.3184 40.0186 18.1426H40.873C40.873 18.3542 41.1335 19.2575 41.6543 20.8525C42.1751 22.4443 42.4355 23.3346 42.4355 23.5234H42.4893C42.4893 23.2044 42.7253 22.3027 43.1973 20.8184C43.6725 19.3307 43.9102 18.4388 43.9102 18.1426H44.8086ZM46.7129 24.5H45.7852C45.834 23.4453 45.8584 22.332 45.8584 21.1602C45.8584 20.0078 45.834 19.002 45.7852 18.1426H46.7129C46.6673 19.0312 46.6445 20.0371 46.6445 21.1602C46.6445 22.3385 46.6673 23.4518 46.7129 24.5ZM52.6162 18.1426L52.5918 18.8311C51.9473 18.7985 51.2816 18.7822 50.5947 18.7822C50.5882 19.4072 50.585 20.1999 50.585 21.1602C50.585 22.2214 50.6012 23.3346 50.6338 24.5H49.7402C49.7793 23.39 49.7988 22.2767 49.7988 21.1602C49.7988 20.2129 49.7891 19.4202 49.7695 18.7822C49.2878 18.7822 48.6107 18.8018 47.7383 18.8408L47.7627 18.1426H52.6162ZM58.3291 24.5H57.4014C57.4339 23.3737 57.4502 22.3646 57.4502 21.4727H54.5254C54.5254 22.1953 54.5417 23.2044 54.5742 24.5H53.6465C53.6921 23.3118 53.7148 22.1986 53.7148 21.1602C53.7148 20.0729 53.6921 19.0671 53.6465 18.1426H54.5742C54.5352 19.0736 54.5156 19.9785 54.5156 20.8574H57.46C57.46 20.151 57.4404 19.2461 57.4014 18.1426H58.3291C58.2803 19.0475 58.2559 20.0534 58.2559 21.1602C58.2559 22.3743 58.2803 23.4876 58.3291 24.5ZM65.1943 21.0918C65.1943 22.0163 64.8981 22.8268 64.3057 23.5234C63.7165 24.2201 62.9027 24.5684 61.8643 24.5684C61.5257 24.5684 60.9609 24.5456 60.1699 24.5C60.2188 23.4909 60.2432 22.3776 60.2432 21.1602C60.2432 20.0143 60.2188 19.0085 60.1699 18.1426H60.707C60.8372 18.1426 61.0358 18.1377 61.3027 18.1279C61.5697 18.1182 61.7454 18.1133 61.8301 18.1133C62.9792 18.1133 63.8271 18.3965 64.374 18.9629C64.9209 19.526 65.1943 20.2357 65.1943 21.0918ZM64.3447 21.3115C64.3447 20.5889 64.1136 19.985 63.6514 19.5C63.1924 19.015 62.4811 18.7725 61.5176 18.7725C61.3809 18.7725 61.1937 18.7887 60.9561 18.8213C60.9821 19.5798 60.9951 20.3594 60.9951 21.1602C60.9951 22.0391 61.013 22.931 61.0488 23.8359C61.3092 23.888 61.5599 23.9141 61.8008 23.9141C62.6602 23.9141 63.2982 23.6602 63.7148 23.1523C64.1348 22.6413 64.3447 22.0277 64.3447 21.3115ZM71.4102 24.5H70.4678C70.1553 23.5658 69.9274 22.9473 69.7842 22.6445C69.6019 22.2637 69.3952 22.0179 69.1641 21.9072C68.9818 21.8193 68.6546 21.7754 68.1826 21.7754C67.9059 21.7754 67.6602 21.7786 67.4453 21.7852C67.4453 22.8366 67.4648 23.7415 67.5039 24.5H66.5957C66.6445 23.4909 66.6689 22.3776 66.6689 21.1602C66.6689 20.0143 66.6445 19.0085 66.5957 18.1426H67.2842C67.4307 18.1426 67.6162 18.1377 67.8408 18.1279C68.0654 18.1182 68.3226 18.1133 68.6123 18.1133C70.0381 18.1133 70.751 18.6048 70.751 19.5879C70.751 20.4049 70.3506 20.9795 69.5498 21.3115V21.3604C69.9079 21.4678 70.1976 21.7168 70.4189 22.1074C70.6045 22.4329 70.9349 23.2305 71.4102 24.5ZM69.916 19.9199C69.916 19.1452 69.3919 18.7578 68.3438 18.7578C67.9694 18.7578 67.6553 18.779 67.4014 18.8213C67.4242 19.3877 67.4355 20.1576 67.4355 21.1309C67.6309 21.1374 67.818 21.1406 67.9971 21.1406C69.2764 21.1406 69.916 20.7337 69.916 19.9199ZM77.8408 24.5H76.8105C76.8105 24.2819 76.6055 23.5967 76.1953 22.4443H73.3779C72.9743 23.5804 72.7725 24.2656 72.7725 24.5H71.7861C71.7861 24.3796 72.2061 23.3395 73.0459 21.3799C73.8857 19.417 74.3057 18.3379 74.3057 18.1426H75.4385C75.4385 18.3346 75.8389 19.3975 76.6396 21.3311C77.4404 23.2646 77.8408 24.321 77.8408 24.5ZM75.9707 21.8047C75.2057 19.8939 74.8232 18.8783 74.8232 18.7578H74.7695C74.7695 18.8587 74.374 19.8743 73.583 21.8047H75.9707ZM86.5469 18.1426C86.5469 18.3802 86.1953 19.4447 85.4922 21.3359C84.7891 23.2272 84.4375 24.2819 84.4375 24.5H83.8027C83.8027 24.2135 83.5472 23.3835 83.0361 22.0098C82.4795 20.5221 82.1637 19.5635 82.0889 19.1338H82.0254C81.9603 19.5895 81.6803 20.5661 81.1855 22.0635C80.7233 23.4665 80.4922 24.2786 80.4922 24.5H79.8574C79.8574 24.168 79.5124 23.0563 78.8223 21.165C78.1354 19.2705 77.792 18.263 77.792 18.1426H78.7197C78.7197 18.276 78.9655 19.1191 79.457 20.6719C79.9518 22.2246 80.1992 23.1751 80.1992 23.5234H80.2529C80.2529 23.1556 80.5036 22.2116 81.0049 20.6914C81.5062 19.168 81.7568 18.3184 81.7568 18.1426H82.6113C82.6113 18.3542 82.8717 19.2575 83.3926 20.8525C83.9134 22.4443 84.1738 23.3346 84.1738 23.5234H84.2275C84.2275 23.2044 84.4635 22.3027 84.9355 20.8184C85.4108 19.3307 85.6484 18.4388 85.6484 18.1426H86.5469Z" fill="#042F46"/>
<defs>
<clipPath id="clip0_424_3846">
<rect width="20" height="20" fill="white" transform="translate(8 8.5)"/>
</clipPath>
</defs>
</svg>
